M48
; DRILL file {KiCad 9.0.2} date 2025-07-29T21:03:29-0500
; FORMAT={-:-/ absolute / metric / decimal}
; #@! TF.CreationDate,2025-07-29T21:03:29-05:00
; #@! TF.GenerationSoftware,Kicad,Pcbnew,9.0.2
; #@! TF.FileFunction,NonPlated,1,2,NPTH
FMAT,2
METRIC
; #@! TA.AperFunction,NonPlated,NPTH,ComponentDrill
T1C1.500
; #@! TA.AperFunction,NonPlated,NPTH,ComponentDrill
T2C1.700
; #@! TA.AperFunction,NonPlated,NPTH,ComponentDrill
T3C1.800
; #@! TA.AperFunction,NonPlated,NPTH,ComponentDrill
T4C3.050
; #@! TA.AperFunction,NonPlated,NPTH,ComponentDrill
T5C4.000
%
G90
G05
T1
X363.235Y-41.39
X363.235Y-46.24
T2
X33.02Y-44.45
X33.02Y-67.31
X35.433Y-143.637
X37.719Y-86.487
X42.418Y-105.41
X42.672Y-124.46
X43.18Y-44.45
X43.18Y-67.31
X45.593Y-143.637
X47.879Y-86.487
X52.07Y-44.45
X52.07Y-67.31
X52.578Y-105.41
X52.832Y-124.46
X59.182Y-143.51
X61.417Y-86.462
X62.23Y-44.45
X62.23Y-67.31
X69.342Y-143.51
X70.866Y-105.41
X71.12Y-44.45
X71.12Y-67.31
X71.12Y-124.46
X71.577Y-86.462
X80.518Y-86.411
X81.026Y-105.41
X81.28Y-44.45
X81.28Y-67.31
X81.28Y-124.46
X82.931Y-143.51
X89.916Y-105.562
X90.17Y-44.45
X90.17Y-67.31
X90.17Y-124.46
X90.678Y-86.411
X93.091Y-143.51
X99.466Y-86.411
X100.076Y-105.562
X100.33Y-44.45
X100.33Y-67.31
X100.33Y-124.46
X108.966Y-105.461
X109.22Y-44.45
X109.22Y-67.31
X109.22Y-124.46
X109.626Y-86.411
X118.516Y-86.411
X119.126Y-105.461
X119.38Y-44.45
X119.38Y-67.31
X119.38Y-124.46
X128.016Y-105.461
X128.27Y-44.45
X128.27Y-67.31
X128.27Y-124.46
X128.676Y-86.411
X137.668Y-86.462
X138.176Y-105.461
X138.43Y-44.45
X138.43Y-67.31
X138.43Y-124.46
X147.066Y-105.461
X147.32Y-44.45
X147.32Y-67.31
X147.32Y-124.46
X147.828Y-86.462
X154.432Y-143.51
X156.616Y-86.309
X157.226Y-105.461
X157.48Y-44.45
X157.48Y-67.31
X157.48Y-124.46
X164.592Y-143.51
X166.116Y-105.41
X166.37Y-44.45
X166.37Y-67.31
X166.37Y-124.46
X166.776Y-86.309
X175.616Y-86.36
X176.276Y-105.41
X176.53Y-44.45
X176.53Y-67.31
X176.53Y-124.46
X185.166Y-105.461
X185.42Y-44.45
X185.42Y-67.31
X185.42Y-124.46
X185.776Y-86.36
X194.666Y-86.462
X195.326Y-105.461
X195.58Y-44.45
X195.58Y-67.31
X195.58Y-124.46
X204.216Y-105.41
X204.47Y-44.45
X204.47Y-67.31
X204.47Y-124.46
X204.826Y-86.462
X213.716Y-86.411
X214.376Y-105.41
X214.63Y-44.45
X214.63Y-67.31
X214.63Y-124.46
X223.266Y-105.41
X223.52Y-44.45
X223.52Y-67.31
X223.52Y-124.46
X223.52Y-143.51
X223.876Y-86.411
X232.664Y-86.36
X233.426Y-105.41
X233.68Y-44.45
X233.68Y-67.31
X233.68Y-124.46
X233.68Y-143.51
X242.316Y-105.41
X242.57Y-44.45
X242.57Y-67.31
X242.57Y-124.46
X242.57Y-143.51
X242.824Y-86.36
X251.765Y-86.462
X252.476Y-105.41
X252.73Y-44.45
X252.73Y-67.31
X252.73Y-124.46
X252.73Y-143.51
X261.366Y-105.41
X261.62Y-44.45
X261.62Y-67.31
X261.747Y-143.51
X261.925Y-86.462
X270.967Y-86.411
X271.272Y-124.46
X271.526Y-105.41
X271.78Y-44.45
X271.78Y-67.31
X271.907Y-143.51
X280.67Y-44.45
X281.127Y-86.411
X281.432Y-124.46
X287.02Y-149.86
X290.068Y-105.41
X290.195Y-67.341
X290.83Y-44.45
X294.894Y-86.512
X297.18Y-149.86
X299.72Y-44.45
X300.228Y-105.41
X300.355Y-67.341
X305.054Y-86.512
X305.943Y-130.81
X306.07Y-149.987
X309.88Y-44.45
X316.103Y-130.81
X316.23Y-149.987
X325.12Y-149.86
X330.2Y-67.31
X330.2Y-86.36
X330.2Y-105.41
X330.2Y-124.46
X335.28Y-149.86
X340.36Y-67.31
X340.36Y-86.36
X340.36Y-105.41
X340.36Y-124.46
T3
X366.265Y-41.09
X366.265Y-46.54
T4
X35.598Y-98.41
X35.852Y-117.46
X59.398Y-98.41
X59.652Y-117.46
X109.512Y-136.51
X209.512Y-136.51
X264.452Y-117.46
X283.248Y-98.41
X283.375Y-60.341
X288.252Y-117.46
X307.048Y-98.41
X307.175Y-60.341
T5
X35.598Y-113.65
X35.852Y-132.7
X38.1Y-44.45
X38.1Y-67.31
X40.513Y-143.637
X42.799Y-86.487
X47.498Y-105.41
X47.752Y-124.46
X57.15Y-44.45
X57.15Y-67.31
X59.398Y-113.65
X59.652Y-132.7
X64.262Y-143.51
X66.497Y-86.462
X75.946Y-105.41
X76.2Y-44.45
X76.2Y-67.31
X76.2Y-124.46
X85.598Y-86.411
X88.011Y-143.51
X94.996Y-105.562
X95.25Y-44.45
X95.25Y-67.31
X95.25Y-124.46
X104.546Y-86.411
X109.512Y-151.75
X114.046Y-105.461
X114.3Y-44.45
X114.3Y-67.31
X114.3Y-124.46
X123.596Y-86.411
X133.096Y-105.461
X133.35Y-44.45
X133.35Y-67.31
X133.35Y-124.46
X142.748Y-86.462
X152.146Y-105.461
X152.4Y-44.45
X152.4Y-67.31
X152.4Y-124.46
X159.512Y-143.51
X161.696Y-86.309
X171.196Y-105.41
X171.45Y-44.45
X171.45Y-67.31
X171.45Y-124.46
X180.696Y-86.36
X190.246Y-105.461
X190.5Y-44.45
X190.5Y-67.31
X190.5Y-124.46
X199.746Y-86.462
X209.296Y-105.41
X209.512Y-151.75
X209.55Y-44.45
X209.55Y-67.31
X209.55Y-124.46
X218.796Y-86.411
X228.346Y-105.41
X228.6Y-44.45
X228.6Y-67.31
X228.6Y-124.46
X228.6Y-143.51
X237.744Y-86.36
X247.396Y-105.41
X247.65Y-44.45
X247.65Y-67.31
X247.65Y-124.46
X247.65Y-143.51
X256.845Y-86.462
X264.452Y-132.7
X266.446Y-105.41
X266.7Y-44.45
X266.7Y-67.31
X266.827Y-143.51
X276.047Y-86.411
X276.352Y-124.46
X283.248Y-113.65
X283.375Y-75.581
X285.75Y-44.45
X288.252Y-132.7
X292.1Y-149.86
X295.148Y-105.41
X295.275Y-67.341
X299.974Y-86.512
X304.8Y-44.45
X307.048Y-113.65
X307.175Y-75.581
X311.023Y-130.81
X311.15Y-149.987
X330.2Y-149.86
X335.28Y-67.31
X335.28Y-86.36
X335.28Y-105.41
X335.28Y-124.46
M30
