%TF.GenerationSoftware,KiCad,Pcbnew,9.0.2*%
%TF.CreationDate,2025-07-29T21:02:50-05:00*%
%TF.ProjectId,realkeyboard,7265616c-6b65-4796-926f-6172642e6b69,rev?*%
%TF.SameCoordinates,Original*%
%TF.FileFunction,Copper,L1,Top*%
%TF.FilePolarity,Positive*%
%FSLAX46Y46*%
G04 Gerber Fmt 4.6, Leading zero omitted, Abs format (unit mm)*
G04 Created by KiCad (PCBNEW 9.0.2) date 2025-07-29 21:02:50*
%MOMM*%
%LPD*%
G01*
G04 APERTURE LIST*
G04 Aperture macros list*
%AMRoundRect*
0 Rectangle with rounded corners*
0 $1 Rounding radius*
0 $2 $3 $4 $5 $6 $7 $8 $9 X,Y pos of 4 corners*
0 Add a 4 corners polygon primitive as box body*
4,1,4,$2,$3,$4,$5,$6,$7,$8,$9,$2,$3,0*
0 Add four circle primitives for the rounded corners*
1,1,$1+$1,$2,$3*
1,1,$1+$1,$4,$5*
1,1,$1+$1,$6,$7*
1,1,$1+$1,$8,$9*
0 Add four rect primitives between the rounded corners*
20,1,$1+$1,$2,$3,$4,$5,0*
20,1,$1+$1,$4,$5,$6,$7,0*
20,1,$1+$1,$6,$7,$8,$9,0*
20,1,$1+$1,$8,$9,$2,$3,0*%
G04 Aperture macros list end*
%TA.AperFunction,ComponentPad*%
%ADD10C,2.200000*%
%TD*%
%TA.AperFunction,ComponentPad*%
%ADD11R,2.000000X2.000000*%
%TD*%
%TA.AperFunction,ComponentPad*%
%ADD12C,2.000000*%
%TD*%
%TA.AperFunction,ComponentPad*%
%ADD13R,3.200000X2.000000*%
%TD*%
%TA.AperFunction,ComponentPad*%
%ADD14RoundRect,0.250000X-0.550000X0.550000X-0.550000X-0.550000X0.550000X-0.550000X0.550000X0.550000X0*%
%TD*%
%TA.AperFunction,ComponentPad*%
%ADD15C,1.600000*%
%TD*%
%TA.AperFunction,ComponentPad*%
%ADD16RoundRect,0.250000X0.550000X-0.550000X0.550000X0.550000X-0.550000X0.550000X-0.550000X-0.550000X0*%
%TD*%
%TA.AperFunction,ComponentPad*%
%ADD17O,1.700000X1.700000*%
%TD*%
%TA.AperFunction,ComponentPad*%
%ADD18R,1.700000X1.700000*%
%TD*%
%TA.AperFunction,ViaPad*%
%ADD19C,0.600000*%
%TD*%
%TA.AperFunction,Conductor*%
%ADD20C,0.200000*%
%TD*%
G04 APERTURE END LIST*
D10*
%TO.P,SW78,1,1*%
%TO.N,col 11*%
X250190000Y-138430000D03*
%TO.P,SW78,2,2*%
%TO.N,Net-(D78-A)*%
X243840000Y-140970000D03*
%TD*%
%TO.P,SW66,1,1*%
%TO.N,col 9*%
X193040000Y-119380000D03*
%TO.P,SW66,2,2*%
%TO.N,Net-(D66-A)*%
X186690000Y-121920000D03*
%TD*%
%TO.P,SW9,1,1*%
%TO.N,col 8*%
X193040000Y-39370000D03*
%TO.P,SW9,2,2*%
%TO.N,Net-(D9-A)*%
X186690000Y-41910000D03*
%TD*%
%TO.P,SW60,1,1*%
%TO.N,col 3*%
X78740000Y-119380000D03*
%TO.P,SW60,2,2*%
%TO.N,Net-(D60-A)*%
X72390000Y-121920000D03*
%TD*%
%TO.P,SW49,1,1*%
%TO.N,col 6*%
X135636000Y-100380800D03*
%TO.P,SW49,2,2*%
%TO.N,Net-(D49-A)*%
X129286000Y-102920800D03*
%TD*%
%TO.P,SW59,1,1*%
%TO.N,col 2*%
X50292000Y-119380000D03*
%TO.P,SW59,2,2*%
%TO.N,Net-(D59-A)*%
X43942000Y-121920000D03*
%TD*%
%TO.P,SW84,1,1*%
%TO.N,row 1*%
X45339000Y-81407000D03*
%TO.P,SW84,2,2*%
%TO.N,Net-(D83-A)*%
X38989000Y-83947000D03*
%TD*%
%TO.P,SW31,1,1*%
%TO.N,col 2*%
X69037200Y-81381600D03*
%TO.P,SW31,2,2*%
%TO.N,Net-(D31-A)*%
X62687200Y-83921600D03*
%TD*%
%TO.P,SW18,1,1*%
%TO.N,col 3*%
X78740000Y-62230000D03*
%TO.P,SW18,2,2*%
%TO.N,Net-(D18-A)*%
X72390000Y-64770000D03*
%TD*%
%TO.P,SW19,1,1*%
%TO.N,col 4*%
X97790000Y-62230000D03*
%TO.P,SW19,2,2*%
%TO.N,Net-(D19-A)*%
X91440000Y-64770000D03*
%TD*%
%TO.P,SW51,1,1*%
%TO.N,col 8*%
X173736000Y-100330000D03*
%TO.P,SW51,2,2*%
%TO.N,Net-(D51-A)*%
X167386000Y-102870000D03*
%TD*%
%TO.P,SW17,1,1*%
%TO.N,col 2*%
X59690000Y-62230000D03*
%TO.P,SW17,2,2*%
%TO.N,Net-(D17-A)*%
X53340000Y-64770000D03*
%TD*%
%TO.P,SW12,1,1*%
%TO.N,col 11*%
X250190000Y-39370000D03*
%TO.P,SW12,2,2*%
%TO.N,Net-(D12-A)*%
X243840000Y-41910000D03*
%TD*%
%TO.P,SW74,1,1*%
%TO.N,col 7*%
X66802000Y-138430000D03*
%TO.P,SW74,2,2*%
%TO.N,Net-(D74-A)*%
X60452000Y-140970000D03*
%TD*%
%TO.P,SW40,1,1*%
%TO.N,col 11*%
X240284000Y-81280000D03*
%TO.P,SW40,2,2*%
%TO.N,Net-(D40-A)*%
X233934000Y-83820000D03*
%TD*%
%TO.P,SW46,1,1*%
%TO.N,col 3*%
X78486000Y-100330000D03*
%TO.P,SW46,2,2*%
%TO.N,Net-(D46-A)*%
X72136000Y-102870000D03*
%TD*%
%TO.P,SW15,1,1*%
%TO.N,col 14*%
X307340000Y-39370000D03*
%TO.P,SW15,2,2*%
%TO.N,Net-(D15-A)*%
X300990000Y-41910000D03*
%TD*%
%TO.P,SW44,1,1*%
%TO.N,col 15*%
X337820000Y-81280000D03*
%TO.P,SW44,2,2*%
%TO.N,Net-(D44-A)*%
X331470000Y-83820000D03*
%TD*%
%TO.P,SW11,1,1*%
%TO.N,col 10*%
X231140000Y-39370000D03*
%TO.P,SW11,2,2*%
%TO.N,Net-(D11-A)*%
X224790000Y-41910000D03*
%TD*%
%TO.P,SW38,1,1*%
%TO.N,col 9*%
X202285600Y-81381600D03*
%TO.P,SW38,2,2*%
%TO.N,Net-(D38-A)*%
X195935600Y-83921600D03*
%TD*%
%TO.P,SW37,1,1*%
%TO.N,col 8*%
X183235600Y-81280000D03*
%TO.P,SW37,2,2*%
%TO.N,Net-(D37-A)*%
X176885600Y-83820000D03*
%TD*%
%TO.P,SW35,1,1*%
%TO.N,col 6*%
X145288000Y-81381600D03*
%TO.P,SW35,2,2*%
%TO.N,Net-(D35-A)*%
X138938000Y-83921600D03*
%TD*%
%TO.P,SW53,1,1*%
%TO.N,col 10*%
X211836000Y-100330000D03*
%TO.P,SW53,2,2*%
%TO.N,Net-(D53-A)*%
X205486000Y-102870000D03*
%TD*%
%TO.P,SW50,1,1*%
%TO.N,col 7*%
X154686000Y-100380800D03*
%TO.P,SW50,2,2*%
%TO.N,Net-(D50-A)*%
X148336000Y-102920800D03*
%TD*%
%TO.P,SW26,1,1*%
%TO.N,col 11*%
X231140000Y-62230000D03*
%TO.P,SW26,2,2*%
%TO.N,Net-(D26-A)*%
X224790000Y-64770000D03*
%TD*%
%TO.P,SW30,1,1*%
%TO.N,col 15*%
X337820000Y-62230000D03*
%TO.P,SW30,2,2*%
%TO.N,Net-(D30-A)*%
X331470000Y-64770000D03*
%TD*%
%TO.P,SW57,1,1*%
%TO.N,col 14*%
X297688000Y-100330000D03*
%TO.P,SW57,2,2*%
%TO.N,Net-(D57-A)*%
X291338000Y-102870000D03*
%TD*%
%TO.P,SW77,1,1*%
%TO.N,col 10*%
X231140000Y-138430000D03*
%TO.P,SW77,2,2*%
%TO.N,Net-(D77-A)*%
X224790000Y-140970000D03*
%TD*%
%TO.P,SW4,1,1*%
%TO.N,col 3*%
X97790000Y-39370000D03*
%TO.P,SW4,2,2*%
%TO.N,Net-(D4-A)*%
X91440000Y-41910000D03*
%TD*%
%TO.P,SW8,1,1*%
%TO.N,col 7*%
X173990000Y-39370000D03*
%TO.P,SW8,2,2*%
%TO.N,Net-(D8-A)*%
X167640000Y-41910000D03*
%TD*%
%TO.P,SW56,1,1*%
%TO.N,col 13*%
X268986000Y-100330000D03*
%TO.P,SW56,2,2*%
%TO.N,Net-(D56-A)*%
X262636000Y-102870000D03*
%TD*%
%TO.P,SW81,1,1*%
%TO.N,col 14*%
X313690000Y-144907000D03*
%TO.P,SW81,2,2*%
%TO.N,Net-(D81-A)*%
X307340000Y-147447000D03*
%TD*%
%TO.P,SW3,1,1*%
%TO.N,col 2*%
X78740000Y-39370000D03*
%TO.P,SW3,2,2*%
%TO.N,Net-(D3-A)*%
X72390000Y-41910000D03*
%TD*%
%TO.P,SW10,1,1*%
%TO.N,col 9*%
X212090000Y-39370000D03*
%TO.P,SW10,2,2*%
%TO.N,Net-(D10-A)*%
X205740000Y-41910000D03*
%TD*%
%TO.P,SW76,1,1*%
%TO.N,col 9*%
X162052000Y-138430000D03*
%TO.P,SW76,2,2*%
%TO.N,Net-(D76-A)*%
X155702000Y-140970000D03*
%TD*%
%TO.P,SW65,1,1*%
%TO.N,col 8*%
X173990000Y-119380000D03*
%TO.P,SW65,2,2*%
%TO.N,Net-(D65-A)*%
X167640000Y-121920000D03*
%TD*%
%TO.P,SW67,1,1*%
%TO.N,col 10*%
X212090000Y-119380000D03*
%TO.P,SW67,2,2*%
%TO.N,Net-(D67-A)*%
X205740000Y-121920000D03*
%TD*%
%TO.P,SW34,1,1*%
%TO.N,col 5*%
X126136400Y-81330800D03*
%TO.P,SW34,2,2*%
%TO.N,Net-(D34-A)*%
X119786400Y-83870800D03*
%TD*%
%TO.P,SW33,1,1*%
%TO.N,col 4*%
X107086400Y-81330800D03*
%TO.P,SW33,2,2*%
%TO.N,Net-(D33-A)*%
X100736400Y-83870800D03*
%TD*%
%TO.P,SW16,1,1*%
%TO.N,col 1*%
X40640000Y-62230000D03*
%TO.P,SW16,2,2*%
%TO.N,Net-(D16-A)*%
X34290000Y-64770000D03*
%TD*%
%TO.P,SW79,1,1*%
%TO.N,col 12*%
X269367000Y-138430000D03*
%TO.P,SW79,2,2*%
%TO.N,Net-(D79-A)*%
X263017000Y-140970000D03*
%TD*%
%TO.P,SW54,1,1*%
%TO.N,col 11*%
X230886000Y-100330000D03*
%TO.P,SW54,2,2*%
%TO.N,Net-(D54-A)*%
X224536000Y-102870000D03*
%TD*%
%TO.P,SW70,1,1*%
%TO.N,col 13*%
X278892000Y-119380000D03*
%TO.P,SW70,2,2*%
%TO.N,Net-(D70-A)*%
X272542000Y-121920000D03*
%TD*%
%TO.P,SW1,1,1*%
%TO.N,col 0*%
X40640000Y-39370000D03*
%TO.P,SW1,2,2*%
%TO.N,Net-(D1-A)*%
X34290000Y-41910000D03*
%TD*%
%TO.P,SW32,1,1*%
%TO.N,col 3*%
X88138000Y-81330800D03*
%TO.P,SW32,2,2*%
%TO.N,Net-(D32-A)*%
X81788000Y-83870800D03*
%TD*%
%TO.P,SW20,1,1*%
%TO.N,col 5*%
X116840000Y-62230000D03*
%TO.P,SW20,2,2*%
%TO.N,Net-(D20-A)*%
X110490000Y-64770000D03*
%TD*%
%TO.P,SW7,1,1*%
%TO.N,col 6*%
X154940000Y-39370000D03*
%TO.P,SW7,2,2*%
%TO.N,Net-(D7-A)*%
X148590000Y-41910000D03*
%TD*%
%TO.P,SW52,1,1*%
%TO.N,col 9*%
X192786000Y-100380800D03*
%TO.P,SW52,2,2*%
%TO.N,Net-(D52-A)*%
X186436000Y-102920800D03*
%TD*%
%TO.P,SW55,1,1*%
%TO.N,col 12*%
X249936000Y-100330000D03*
%TO.P,SW55,2,2*%
%TO.N,Net-(D55-A)*%
X243586000Y-102870000D03*
%TD*%
%TO.P,SW80,1,1*%
%TO.N,col 13*%
X294640000Y-144780000D03*
%TO.P,SW80,2,2*%
%TO.N,Net-(D80-A)*%
X288290000Y-147320000D03*
%TD*%
%TO.P,SW71,1,1*%
%TO.N,col 14*%
X313563000Y-125730000D03*
%TO.P,SW71,2,2*%
%TO.N,Net-(D71-A)*%
X307213000Y-128270000D03*
%TD*%
%TO.P,SW75,1,1*%
%TO.N,col 8*%
X90551000Y-138430000D03*
%TO.P,SW75,2,2*%
%TO.N,Net-(D75-A)*%
X84201000Y-140970000D03*
%TD*%
%TO.P,SW6,1,1*%
%TO.N,col 5*%
X135890000Y-39370000D03*
%TO.P,SW6,2,2*%
%TO.N,Net-(D6-A)*%
X129540000Y-41910000D03*
%TD*%
%TO.P,SW24,1,1*%
%TO.N,col 9*%
X193040000Y-62230000D03*
%TO.P,SW24,2,2*%
%TO.N,Net-(D24-A)*%
X186690000Y-64770000D03*
%TD*%
%TO.P,SW42,1,1*%
%TO.N,col 13*%
X278587200Y-81330800D03*
%TO.P,SW42,2,2*%
%TO.N,Net-(D42-A)*%
X272237200Y-83870800D03*
%TD*%
%TO.P,SW27,1,1*%
%TO.N,col 12*%
X250190000Y-62230000D03*
%TO.P,SW27,2,2*%
%TO.N,Net-(D27-A)*%
X243840000Y-64770000D03*
%TD*%
%TO.P,SW5,1,1*%
%TO.N,col 4*%
X116840000Y-39370000D03*
%TO.P,SW5,2,2*%
%TO.N,Net-(D5-A)*%
X110490000Y-41910000D03*
%TD*%
%TO.P,SW36,1,1*%
%TO.N,col 7*%
X164236400Y-81229200D03*
%TO.P,SW36,2,2*%
%TO.N,Net-(D36-A)*%
X157886400Y-83769200D03*
%TD*%
%TO.P,SW25,1,1*%
%TO.N,col 10*%
X212090000Y-62230000D03*
%TO.P,SW25,2,2*%
%TO.N,Net-(D25-A)*%
X205740000Y-64770000D03*
%TD*%
%TO.P,SW41,1,1*%
%TO.N,col 12*%
X259384800Y-81381600D03*
%TO.P,SW41,2,2*%
%TO.N,Net-(D41-A)*%
X253034800Y-83921600D03*
%TD*%
%TO.P,SW58,1,1*%
%TO.N,col 15*%
X337820000Y-100330000D03*
%TO.P,SW58,2,2*%
%TO.N,Net-(D58-A)*%
X331470000Y-102870000D03*
%TD*%
%TO.P,SW39,1,1*%
%TO.N,col 10*%
X221335600Y-81330800D03*
%TO.P,SW39,2,2*%
%TO.N,Net-(D39-A)*%
X214985600Y-83870800D03*
%TD*%
%TO.P,SW22,1,1*%
%TO.N,col 7*%
X154940000Y-62230000D03*
%TO.P,SW22,2,2*%
%TO.N,Net-(D22-A)*%
X148590000Y-64770000D03*
%TD*%
%TO.P,SW48,1,1*%
%TO.N,col 5*%
X116586000Y-100380800D03*
%TO.P,SW48,2,2*%
%TO.N,Net-(D48-A)*%
X110236000Y-102920800D03*
%TD*%
%TO.P,SW21,1,1*%
%TO.N,col 6*%
X135890000Y-62230000D03*
%TO.P,SW21,2,2*%
%TO.N,Net-(D21-A)*%
X129540000Y-64770000D03*
%TD*%
%TO.P,SW14,1,1*%
%TO.N,col 13*%
X288290000Y-39370000D03*
%TO.P,SW14,2,2*%
%TO.N,Net-(D14-A)*%
X281940000Y-41910000D03*
%TD*%
%TO.P,SW68,1,1*%
%TO.N,col 11*%
X231140000Y-119380000D03*
%TO.P,SW68,2,2*%
%TO.N,Net-(D68-A)*%
X224790000Y-121920000D03*
%TD*%
D11*
%TO.P,SW83,A,A*%
%TO.N,en0*%
X327780000Y-41835000D03*
D12*
%TO.P,SW83,B,B*%
%TO.N,en1*%
X327780000Y-46835000D03*
%TO.P,SW83,C,C*%
%TO.N,GND*%
X327780000Y-44335000D03*
D13*
%TO.P,SW83,MP*%
%TO.N,N/C*%
X335280000Y-38735000D03*
X335280000Y-49935000D03*
D12*
%TO.P,SW83,S1,S1*%
%TO.N,col 15*%
X342280000Y-46835000D03*
%TO.P,SW83,S2,S2*%
%TO.N,row 0*%
X342280000Y-41835000D03*
%TD*%
D10*
%TO.P,SW69,1,1*%
%TO.N,col 12*%
X250190000Y-119380000D03*
%TO.P,SW69,2,2*%
%TO.N,Net-(D69-A)*%
X243840000Y-121920000D03*
%TD*%
%TO.P,SW82,1,1*%
%TO.N,col 15*%
X332740000Y-144780000D03*
%TO.P,SW82,2,2*%
%TO.N,Net-(D82-A)*%
X326390000Y-147320000D03*
%TD*%
%TO.P,SW72,1,1*%
%TO.N,col 15*%
X337820000Y-119380000D03*
%TO.P,SW72,2,2*%
%TO.N,Net-(D72-A)*%
X331470000Y-121920000D03*
%TD*%
%TO.P,SW13,1,1*%
%TO.N,col 12*%
X269240000Y-39370000D03*
%TO.P,SW13,2,2*%
%TO.N,Net-(D13-A)*%
X262890000Y-41910000D03*
%TD*%
%TO.P,SW29,1,1*%
%TO.N,col 14*%
X297815000Y-62261500D03*
%TO.P,SW29,2,2*%
%TO.N,Net-(D29-A)*%
X291465000Y-64801500D03*
%TD*%
%TO.P,SW45,1,1*%
%TO.N,col 2*%
X50038000Y-100330000D03*
%TO.P,SW45,2,2*%
%TO.N,Net-(D45-A)*%
X43688000Y-102870000D03*
%TD*%
%TO.P,SW62,1,1*%
%TO.N,col 5*%
X116840000Y-119380000D03*
%TO.P,SW62,2,2*%
%TO.N,Net-(D62-A)*%
X110490000Y-121920000D03*
%TD*%
%TO.P,SW61,1,1*%
%TO.N,col 4*%
X97790000Y-119380000D03*
%TO.P,SW61,2,2*%
%TO.N,Net-(D61-A)*%
X91440000Y-121920000D03*
%TD*%
%TO.P,SW63,1,1*%
%TO.N,col 6*%
X135890000Y-119380000D03*
%TO.P,SW63,2,2*%
%TO.N,Net-(D63-A)*%
X129540000Y-121920000D03*
%TD*%
%TO.P,SW2,1,1*%
%TO.N,col 1*%
X59690000Y-39370000D03*
%TO.P,SW2,2,2*%
%TO.N,Net-(D2-A)*%
X53340000Y-41910000D03*
%TD*%
%TO.P,SW28,1,1*%
%TO.N,col 13*%
X269240000Y-62230000D03*
%TO.P,SW28,2,2*%
%TO.N,Net-(D28-A)*%
X262890000Y-64770000D03*
%TD*%
%TO.P,SW64,1,1*%
%TO.N,col 7*%
X154940000Y-119380000D03*
%TO.P,SW64,2,2*%
%TO.N,Net-(D64-A)*%
X148590000Y-121920000D03*
%TD*%
%TO.P,SW43,1,1*%
%TO.N,col 14*%
X302514000Y-81432400D03*
%TO.P,SW43,2,2*%
%TO.N,Net-(D43-A)*%
X296164000Y-83972400D03*
%TD*%
%TO.P,SW73,1,1*%
%TO.N,col 6*%
X43053000Y-138557000D03*
%TO.P,SW73,2,2*%
%TO.N,Net-(D73-A)*%
X36703000Y-141097000D03*
%TD*%
%TO.P,SW47,1,1*%
%TO.N,col 4*%
X97536000Y-100482400D03*
%TO.P,SW47,2,2*%
%TO.N,Net-(D47-A)*%
X91186000Y-103022400D03*
%TD*%
%TO.P,SW23,1,1*%
%TO.N,col 8*%
X173990000Y-62230000D03*
%TO.P,SW23,2,2*%
%TO.N,Net-(D23-A)*%
X167640000Y-64770000D03*
%TD*%
D14*
%TO.P,D61,1,K*%
%TO.N,row 4*%
X85725000Y-114935000D03*
D15*
%TO.P,D61,2,A*%
%TO.N,Net-(D61-A)*%
X85725000Y-122555000D03*
%TD*%
D14*
%TO.P,D82,1,K*%
%TO.N,row 5*%
X339725000Y-140335000D03*
D15*
%TO.P,D82,2,A*%
%TO.N,Net-(D82-A)*%
X339725000Y-147955000D03*
%TD*%
D14*
%TO.P,D3,1,K*%
%TO.N,row 0*%
X66548000Y-36068000D03*
D15*
%TO.P,D3,2,A*%
%TO.N,Net-(D3-A)*%
X66548000Y-43688000D03*
%TD*%
D14*
%TO.P,D25,1,K*%
%TO.N,row 1*%
X219075000Y-60325000D03*
D15*
%TO.P,D25,2,A*%
%TO.N,Net-(D25-A)*%
X219075000Y-67945000D03*
%TD*%
D14*
%TO.P,D14,1,K*%
%TO.N,row 0*%
X295275000Y-35560000D03*
D15*
%TO.P,D14,2,A*%
%TO.N,Net-(D14-A)*%
X295275000Y-43180000D03*
%TD*%
D14*
%TO.P,D70,1,K*%
%TO.N,row 4*%
X257175000Y-114935000D03*
D15*
%TO.P,D70,2,A*%
%TO.N,Net-(D70-A)*%
X257175000Y-122555000D03*
%TD*%
D16*
%TO.P,D17,1,K*%
%TO.N,row 1*%
X47752000Y-72136000D03*
D15*
%TO.P,D17,2,A*%
%TO.N,Net-(D17-A)*%
X47752000Y-64516000D03*
%TD*%
D14*
%TO.P,D6,1,K*%
%TO.N,row 0*%
X123825000Y-36195000D03*
D15*
%TO.P,D6,2,A*%
%TO.N,Net-(D6-A)*%
X123825000Y-43815000D03*
%TD*%
D14*
%TO.P,D31,1,K*%
%TO.N,row 2*%
X57150000Y-79375000D03*
D15*
%TO.P,D31,2,A*%
%TO.N,Net-(D31-A)*%
X57150000Y-86995000D03*
%TD*%
D14*
%TO.P,D34,1,K*%
%TO.N,row 2*%
X113665000Y-79375000D03*
D15*
%TO.P,D34,2,A*%
%TO.N,Net-(D34-A)*%
X113665000Y-86995000D03*
%TD*%
D14*
%TO.P,D68,1,K*%
%TO.N,row 4*%
X219075000Y-114935000D03*
D15*
%TO.P,D68,2,A*%
%TO.N,Net-(D68-A)*%
X219075000Y-122555000D03*
%TD*%
D16*
%TO.P,D23,1,K*%
%TO.N,row 1*%
X161925000Y-72390000D03*
D15*
%TO.P,D23,2,A*%
%TO.N,Net-(D23-A)*%
X161925000Y-64770000D03*
%TD*%
D14*
%TO.P,D41,1,K*%
%TO.N,row 2*%
X247015000Y-82550000D03*
D15*
%TO.P,D41,2,A*%
%TO.N,Net-(D41-A)*%
X247015000Y-90170000D03*
%TD*%
D14*
%TO.P,D72,1,K*%
%TO.N,row 4*%
X325755000Y-114935000D03*
D15*
%TO.P,D72,2,A*%
%TO.N,Net-(D72-A)*%
X325755000Y-122555000D03*
%TD*%
D14*
%TO.P,D28,1,K*%
%TO.N,row 1*%
X276225000Y-60325000D03*
D15*
%TO.P,D28,2,A*%
%TO.N,Net-(D28-A)*%
X276225000Y-67945000D03*
%TD*%
D14*
%TO.P,D55,1,K*%
%TO.N,row 3*%
X237490000Y-95885000D03*
D15*
%TO.P,D55,2,A*%
%TO.N,Net-(D55-A)*%
X237490000Y-103505000D03*
%TD*%
D14*
%TO.P,D54,1,K*%
%TO.N,row 3*%
X218440000Y-95885000D03*
D15*
%TO.P,D54,2,A*%
%TO.N,Net-(D54-A)*%
X218440000Y-103505000D03*
%TD*%
D14*
%TO.P,D26,1,K*%
%TO.N,row 1*%
X238125000Y-60325000D03*
D15*
%TO.P,D26,2,A*%
%TO.N,Net-(D26-A)*%
X238125000Y-67945000D03*
%TD*%
D14*
%TO.P,D49,1,K*%
%TO.N,row 3*%
X123825000Y-95885000D03*
D15*
%TO.P,D49,2,A*%
%TO.N,Net-(D49-A)*%
X123825000Y-103505000D03*
%TD*%
D14*
%TO.P,D4,1,K*%
%TO.N,row 0*%
X85725000Y-36068000D03*
D15*
%TO.P,D4,2,A*%
%TO.N,Net-(D4-A)*%
X85725000Y-43688000D03*
%TD*%
D14*
%TO.P,D42,1,K*%
%TO.N,row 2*%
X266700000Y-82550000D03*
D15*
%TO.P,D42,2,A*%
%TO.N,Net-(D42-A)*%
X266700000Y-90170000D03*
%TD*%
D14*
%TO.P,D11,1,K*%
%TO.N,row 0*%
X238125000Y-35560000D03*
D15*
%TO.P,D11,2,A*%
%TO.N,Net-(D11-A)*%
X238125000Y-43180000D03*
%TD*%
D14*
%TO.P,D30,1,K*%
%TO.N,row 1*%
X345440000Y-60960000D03*
D15*
%TO.P,D30,2,A*%
%TO.N,Net-(D30-A)*%
X345440000Y-68580000D03*
%TD*%
D14*
%TO.P,D65,1,K*%
%TO.N,row 4*%
X161925000Y-114935000D03*
D15*
%TO.P,D65,2,A*%
%TO.N,Net-(D65-A)*%
X161925000Y-122555000D03*
%TD*%
D16*
%TO.P,D22,1,K*%
%TO.N,row 1*%
X143510000Y-72390000D03*
D15*
%TO.P,D22,2,A*%
%TO.N,Net-(D22-A)*%
X143510000Y-64770000D03*
%TD*%
D14*
%TO.P,D40,1,K*%
%TO.N,row 2*%
X229235000Y-82550000D03*
D15*
%TO.P,D40,2,A*%
%TO.N,Net-(D40-A)*%
X229235000Y-90170000D03*
%TD*%
D14*
%TO.P,D69,1,K*%
%TO.N,row 4*%
X238125000Y-114935000D03*
D15*
%TO.P,D69,2,A*%
%TO.N,Net-(D69-A)*%
X238125000Y-122555000D03*
%TD*%
D14*
%TO.P,D60,1,K*%
%TO.N,row 4*%
X66040000Y-114935000D03*
D15*
%TO.P,D60,2,A*%
%TO.N,Net-(D60-A)*%
X66040000Y-122555000D03*
%TD*%
D14*
%TO.P,D10,1,K*%
%TO.N,row 0*%
X219075000Y-35560000D03*
D15*
%TO.P,D10,2,A*%
%TO.N,Net-(D10-A)*%
X219075000Y-43180000D03*
%TD*%
D14*
%TO.P,D13,1,K*%
%TO.N,row 0*%
X276225000Y-35560000D03*
D15*
%TO.P,D13,2,A*%
%TO.N,Net-(D13-A)*%
X276225000Y-43180000D03*
%TD*%
D14*
%TO.P,D64,1,K*%
%TO.N,row 4*%
X142875000Y-114935000D03*
D15*
%TO.P,D64,2,A*%
%TO.N,Net-(D64-A)*%
X142875000Y-122555000D03*
%TD*%
D14*
%TO.P,D52,1,K*%
%TO.N,row 3*%
X180340000Y-95885000D03*
D15*
%TO.P,D52,2,A*%
%TO.N,Net-(D52-A)*%
X180340000Y-103505000D03*
%TD*%
D14*
%TO.P,D77,1,K*%
%TO.N,row 5*%
X238125000Y-133985000D03*
D15*
%TO.P,D77,2,A*%
%TO.N,Net-(D77-A)*%
X238125000Y-141605000D03*
%TD*%
D14*
%TO.P,D15,1,K*%
%TO.N,row 0*%
X313690000Y-35560000D03*
D15*
%TO.P,D15,2,A*%
%TO.N,Net-(D15-A)*%
X313690000Y-43180000D03*
%TD*%
D14*
%TO.P,D53,1,K*%
%TO.N,row 3*%
X200025000Y-95885000D03*
D15*
%TO.P,D53,2,A*%
%TO.N,Net-(D53-A)*%
X200025000Y-103505000D03*
%TD*%
D14*
%TO.P,D80,1,K*%
%TO.N,row 5*%
X301625000Y-140335000D03*
D15*
%TO.P,D80,2,A*%
%TO.N,Net-(D80-A)*%
X301625000Y-147955000D03*
%TD*%
D14*
%TO.P,D9,1,K*%
%TO.N,row 0*%
X200025000Y-35560000D03*
D15*
%TO.P,D9,2,A*%
%TO.N,Net-(D9-A)*%
X200025000Y-43180000D03*
%TD*%
D14*
%TO.P,D78,1,K*%
%TO.N,row 5*%
X257175000Y-133985000D03*
D15*
%TO.P,D78,2,A*%
%TO.N,Net-(D78-A)*%
X257175000Y-141605000D03*
%TD*%
D14*
%TO.P,D59,1,K*%
%TO.N,row 4*%
X28575000Y-114300000D03*
D15*
%TO.P,D59,2,A*%
%TO.N,Net-(D59-A)*%
X28575000Y-121920000D03*
%TD*%
D14*
%TO.P,D81,1,K*%
%TO.N,row 5*%
X320675000Y-140335000D03*
D15*
%TO.P,D81,2,A*%
%TO.N,Net-(D81-A)*%
X320675000Y-147955000D03*
%TD*%
D14*
%TO.P,D33,1,K*%
%TO.N,row 2*%
X95250000Y-79375000D03*
D15*
%TO.P,D33,2,A*%
%TO.N,Net-(D33-A)*%
X95250000Y-86995000D03*
%TD*%
D14*
%TO.P,D35,1,K*%
%TO.N,row 2*%
X133350000Y-79375000D03*
D15*
%TO.P,D35,2,A*%
%TO.N,Net-(D35-A)*%
X133350000Y-86995000D03*
%TD*%
D14*
%TO.P,D2,1,K*%
%TO.N,row 0*%
X47625000Y-36195000D03*
D15*
%TO.P,D2,2,A*%
%TO.N,Net-(D2-A)*%
X47625000Y-43815000D03*
%TD*%
D17*
%TO.P,A1,1,GPIO0*%
%TO.N,row 0*%
X366395000Y-52705000D03*
%TO.P,A1,2,GPIO1*%
%TO.N,row 1*%
X363855000Y-52705000D03*
D18*
%TO.P,A1,3,GND*%
%TO.N,GND*%
X361315000Y-52705000D03*
D17*
%TO.P,A1,4,GPIO2*%
%TO.N,row 2*%
X358775000Y-52705000D03*
%TO.P,A1,5,GPIO3*%
%TO.N,row 3*%
X356235000Y-52705000D03*
%TO.P,A1,6,GPIO4*%
%TO.N,row 4*%
X353695000Y-52705000D03*
%TO.P,A1,7,GPIO5*%
%TO.N,row 5*%
X351155000Y-52705000D03*
D18*
%TO.P,A1,8,GND*%
%TO.N,GND*%
X348615000Y-52705000D03*
D17*
%TO.P,A1,9,GPIO6*%
%TO.N,col 15*%
X346075000Y-52705000D03*
%TO.P,A1,10,GPIO7*%
%TO.N,col 0*%
X343535000Y-52705000D03*
%TO.P,A1,11,GPIO8*%
%TO.N,col 1*%
X340995000Y-52705000D03*
%TO.P,A1,12,GPIO9*%
%TO.N,col 2*%
X338455000Y-52705000D03*
D18*
%TO.P,A1,13,GND*%
%TO.N,GND*%
X335915000Y-52705000D03*
D17*
%TO.P,A1,14,GPIO10*%
%TO.N,col 3*%
X333375000Y-52705000D03*
%TO.P,A1,15,GPIO11*%
%TO.N,col 4*%
X330835000Y-52705000D03*
%TO.P,A1,16,GPIO12*%
%TO.N,col 5*%
X328295000Y-52705000D03*
%TO.P,A1,17,GPIO13*%
%TO.N,col 6*%
X325755000Y-52705000D03*
D18*
%TO.P,A1,18,GND*%
%TO.N,GND*%
X323215000Y-52705000D03*
D17*
%TO.P,A1,19,GPIO14*%
%TO.N,col 7*%
X320675000Y-52705000D03*
%TO.P,A1,20,GPIO15*%
%TO.N,col 8*%
X318135000Y-52705000D03*
%TO.P,A1,21,GPIO16*%
%TO.N,col 9*%
X318135000Y-34925000D03*
%TO.P,A1,22,GPIO17*%
%TO.N,col 10*%
X320675000Y-34925000D03*
D18*
%TO.P,A1,23,GND*%
%TO.N,GND*%
X323215000Y-34925000D03*
D17*
%TO.P,A1,24,GPIO18*%
%TO.N,col 11*%
X325755000Y-34925000D03*
%TO.P,A1,25,GPIO19*%
%TO.N,col 12*%
X328295000Y-34925000D03*
%TO.P,A1,26,GPIO20*%
%TO.N,col 13*%
X330835000Y-34925000D03*
%TO.P,A1,27,GPIO21*%
%TO.N,col 14*%
X333375000Y-34925000D03*
D18*
%TO.P,A1,28,GND*%
%TO.N,GND*%
X335915000Y-34925000D03*
D17*
%TO.P,A1,29,GPIO22*%
%TO.N,en0*%
X338455000Y-34925000D03*
%TO.P,A1,30,RUN*%
%TO.N,unconnected-(A1-RUN-Pad30)*%
X340995000Y-34925000D03*
%TO.P,A1,31,GPIO26_ADC0*%
%TO.N,en1*%
X343535000Y-34925000D03*
%TO.P,A1,32,GPIO27_ADC1*%
%TO.N,led*%
X346075000Y-34925000D03*
D18*
%TO.P,A1,33,AGND*%
%TO.N,unconnected-(A1-AGND-Pad33)*%
X348615000Y-34925000D03*
D17*
%TO.P,A1,34,GPIO28_ADC2*%
%TO.N,unconnected-(A1-GPIO28_ADC2-Pad34)*%
X351155000Y-34925000D03*
%TO.P,A1,35,ADC_VREF*%
%TO.N,unconnected-(A1-ADC_VREF-Pad35)*%
X353695000Y-34925000D03*
%TO.P,A1,36,3V3*%
%TO.N,unconnected-(A1-3V3-Pad36)*%
X356235000Y-34925000D03*
%TO.P,A1,37,3V3_EN*%
%TO.N,unconnected-(A1-3V3_EN-Pad37)*%
X358775000Y-34925000D03*
D18*
%TO.P,A1,38,GND*%
%TO.N,GND*%
X361315000Y-34925000D03*
D17*
%TO.P,A1,39,VSYS*%
%TO.N,unconnected-(A1-VSYS-Pad39)*%
X363855000Y-34925000D03*
%TO.P,A1,40,VBUS*%
%TO.N,+5V*%
X366395000Y-34925000D03*
%TO.P,A1,41*%
%TO.N,N/C*%
X318365000Y-46355000D03*
D18*
%TO.P,A1,42*%
X318365000Y-43815000D03*
D17*
%TO.P,A1,43*%
X318365000Y-41275000D03*
%TD*%
D14*
%TO.P,D66,1,K*%
%TO.N,row 4*%
X180975000Y-114935000D03*
D15*
%TO.P,D66,2,A*%
%TO.N,Net-(D66-A)*%
X180975000Y-122555000D03*
%TD*%
D14*
%TO.P,D71,1,K*%
%TO.N,row 4*%
X300355000Y-114935000D03*
D15*
%TO.P,D71,2,A*%
%TO.N,Net-(D71-A)*%
X300355000Y-122555000D03*
%TD*%
D14*
%TO.P,D57,1,K*%
%TO.N,row 3*%
X275590000Y-95885000D03*
D15*
%TO.P,D57,2,A*%
%TO.N,Net-(D57-A)*%
X275590000Y-103505000D03*
%TD*%
D14*
%TO.P,D56,1,K*%
%TO.N,row 3*%
X256844800Y-95885000D03*
D15*
%TO.P,D56,2,A*%
%TO.N,Net-(D56-A)*%
X256844800Y-103505000D03*
%TD*%
D14*
%TO.P,D46,1,K*%
%TO.N,row 3*%
X66040000Y-95885000D03*
D15*
%TO.P,D46,2,A*%
%TO.N,Net-(D46-A)*%
X66040000Y-103505000D03*
%TD*%
D14*
%TO.P,D79,1,K*%
%TO.N,row 5*%
X276225000Y-133985000D03*
D15*
%TO.P,D79,2,A*%
%TO.N,Net-(D79-A)*%
X276225000Y-141605000D03*
%TD*%
D14*
%TO.P,D32,1,K*%
%TO.N,row 2*%
X75565000Y-79375000D03*
D15*
%TO.P,D32,2,A*%
%TO.N,Net-(D32-A)*%
X75565000Y-86995000D03*
%TD*%
D14*
%TO.P,D45,1,K*%
%TO.N,row 3*%
X28575000Y-95885000D03*
D15*
%TO.P,D45,2,A*%
%TO.N,Net-(D45-A)*%
X28575000Y-103505000D03*
%TD*%
D14*
%TO.P,D39,1,K*%
%TO.N,row 2*%
X208915000Y-82550000D03*
D15*
%TO.P,D39,2,A*%
%TO.N,Net-(D39-A)*%
X208915000Y-90170000D03*
%TD*%
D14*
%TO.P,D75,1,K*%
%TO.N,row 5*%
X99695000Y-133985000D03*
D15*
%TO.P,D75,2,A*%
%TO.N,Net-(D75-A)*%
X99695000Y-141605000D03*
%TD*%
D14*
%TO.P,D5,1,K*%
%TO.N,row 0*%
X105410000Y-36195000D03*
D15*
%TO.P,D5,2,A*%
%TO.N,Net-(D5-A)*%
X105410000Y-43815000D03*
%TD*%
D14*
%TO.P,D63,1,K*%
%TO.N,row 4*%
X123825000Y-114935000D03*
D15*
%TO.P,D63,2,A*%
%TO.N,Net-(D63-A)*%
X123825000Y-122555000D03*
%TD*%
D14*
%TO.P,D48,1,K*%
%TO.N,row 3*%
X104775000Y-95885000D03*
D15*
%TO.P,D48,2,A*%
%TO.N,Net-(D48-A)*%
X104775000Y-103505000D03*
%TD*%
D16*
%TO.P,D16,1,K*%
%TO.N,row 1*%
X28575000Y-76835000D03*
D15*
%TO.P,D16,2,A*%
%TO.N,Net-(D16-A)*%
X28575000Y-69215000D03*
%TD*%
D14*
%TO.P,D43,1,K*%
%TO.N,row 2*%
X285750000Y-82550000D03*
D15*
%TO.P,D43,2,A*%
%TO.N,Net-(D43-A)*%
X285750000Y-90170000D03*
%TD*%
D14*
%TO.P,D58,1,K*%
%TO.N,row 3*%
X313690000Y-95885000D03*
D15*
%TO.P,D58,2,A*%
%TO.N,Net-(D58-A)*%
X313690000Y-103505000D03*
%TD*%
D14*
%TO.P,D51,1,K*%
%TO.N,row 3*%
X161925000Y-95885000D03*
D15*
%TO.P,D51,2,A*%
%TO.N,Net-(D51-A)*%
X161925000Y-103505000D03*
%TD*%
D16*
%TO.P,D20,1,K*%
%TO.N,row 1*%
X104775000Y-72390000D03*
D15*
%TO.P,D20,2,A*%
%TO.N,Net-(D20-A)*%
X104775000Y-64770000D03*
%TD*%
D14*
%TO.P,D1,1,K*%
%TO.N,row 0*%
X28575000Y-36195000D03*
D15*
%TO.P,D1,2,A*%
%TO.N,Net-(D1-A)*%
X28575000Y-43815000D03*
%TD*%
D14*
%TO.P,D7,1,K*%
%TO.N,row 0*%
X142875000Y-36195000D03*
D15*
%TO.P,D7,2,A*%
%TO.N,Net-(D7-A)*%
X142875000Y-43815000D03*
%TD*%
D14*
%TO.P,D8,1,K*%
%TO.N,row 0*%
X161925000Y-35560000D03*
D15*
%TO.P,D8,2,A*%
%TO.N,Net-(D8-A)*%
X161925000Y-43180000D03*
%TD*%
D14*
%TO.P,D27,1,K*%
%TO.N,row 1*%
X257175000Y-60325000D03*
D15*
%TO.P,D27,2,A*%
%TO.N,Net-(D27-A)*%
X257175000Y-67945000D03*
%TD*%
D14*
%TO.P,D29,1,K*%
%TO.N,row 1*%
X312420000Y-60325000D03*
D15*
%TO.P,D29,2,A*%
%TO.N,Net-(D29-A)*%
X312420000Y-67945000D03*
%TD*%
D14*
%TO.P,D67,1,K*%
%TO.N,row 4*%
X200025000Y-114935000D03*
D15*
%TO.P,D67,2,A*%
%TO.N,Net-(D67-A)*%
X200025000Y-122555000D03*
%TD*%
D14*
%TO.P,D76,1,K*%
%TO.N,row 5*%
X219075000Y-133985000D03*
D15*
%TO.P,D76,2,A*%
%TO.N,Net-(D76-A)*%
X219075000Y-141605000D03*
%TD*%
D14*
%TO.P,D37,1,K*%
%TO.N,row 2*%
X170180000Y-79375000D03*
D15*
%TO.P,D37,2,A*%
%TO.N,Net-(D37-A)*%
X170180000Y-86995000D03*
%TD*%
D14*
%TO.P,D38,1,K*%
%TO.N,row 2*%
X190500000Y-82550000D03*
D15*
%TO.P,D38,2,A*%
%TO.N,Net-(D38-A)*%
X190500000Y-90170000D03*
%TD*%
D14*
%TO.P,D24,1,K*%
%TO.N,row 1*%
X200025000Y-60325000D03*
D15*
%TO.P,D24,2,A*%
%TO.N,Net-(D24-A)*%
X200025000Y-67945000D03*
%TD*%
D16*
%TO.P,D19,1,K*%
%TO.N,row 1*%
X85852000Y-72644000D03*
D15*
%TO.P,D19,2,A*%
%TO.N,Net-(D19-A)*%
X85852000Y-65024000D03*
%TD*%
D14*
%TO.P,D44,1,K*%
%TO.N,row 2*%
X314325000Y-82550000D03*
D15*
%TO.P,D44,2,A*%
%TO.N,Net-(D44-A)*%
X314325000Y-90170000D03*
%TD*%
D14*
%TO.P,D83,1,K*%
%TO.N,row 2*%
X29210000Y-81280000D03*
D15*
%TO.P,D83,2,A*%
%TO.N,Net-(D83-A)*%
X29210000Y-88900000D03*
%TD*%
D14*
%TO.P,D50,1,K*%
%TO.N,row 3*%
X142875000Y-95885000D03*
D15*
%TO.P,D50,2,A*%
%TO.N,Net-(D50-A)*%
X142875000Y-103505000D03*
%TD*%
D14*
%TO.P,D47,1,K*%
%TO.N,row 3*%
X85090000Y-95885000D03*
D15*
%TO.P,D47,2,A*%
%TO.N,Net-(D47-A)*%
X85090000Y-103505000D03*
%TD*%
D14*
%TO.P,D73,1,K*%
%TO.N,row 5*%
X52705000Y-133985000D03*
D15*
%TO.P,D73,2,A*%
%TO.N,Net-(D73-A)*%
X52705000Y-141605000D03*
%TD*%
D14*
%TO.P,D12,1,K*%
%TO.N,row 0*%
X257175000Y-35560000D03*
D15*
%TO.P,D12,2,A*%
%TO.N,Net-(D12-A)*%
X257175000Y-43180000D03*
%TD*%
D14*
%TO.P,D62,1,K*%
%TO.N,row 4*%
X104775000Y-114935000D03*
D15*
%TO.P,D62,2,A*%
%TO.N,Net-(D62-A)*%
X104775000Y-122555000D03*
%TD*%
D16*
%TO.P,D21,1,K*%
%TO.N,row 1*%
X123825000Y-72390000D03*
D15*
%TO.P,D21,2,A*%
%TO.N,Net-(D21-A)*%
X123825000Y-64770000D03*
%TD*%
D14*
%TO.P,D36,1,K*%
%TO.N,row 2*%
X152400000Y-79375000D03*
D15*
%TO.P,D36,2,A*%
%TO.N,Net-(D36-A)*%
X152400000Y-86995000D03*
%TD*%
D14*
%TO.P,D74,1,K*%
%TO.N,row 5*%
X75565000Y-133985000D03*
D15*
%TO.P,D74,2,A*%
%TO.N,Net-(D74-A)*%
X75565000Y-141605000D03*
%TD*%
D16*
%TO.P,D18,1,K*%
%TO.N,row 1*%
X66548000Y-72644000D03*
D15*
%TO.P,D18,2,A*%
%TO.N,Net-(D18-A)*%
X66548000Y-65024000D03*
%TD*%
D19*
%TO.N,GND*%
X344170000Y-140335000D03*
X349405000Y-59450000D03*
X24765000Y-76835000D03*
X24765000Y-61595000D03*
X26670000Y-98425000D03*
X326390000Y-45085000D03*
X347105000Y-110970000D03*
X24610000Y-98425000D03*
X347345000Y-93980000D03*
X346710000Y-137160000D03*
X308765000Y-31510000D03*
%TO.N,col 3*%
X80467200Y-119075200D03*
%TO.N,col 13*%
X280466800Y-80529800D03*
%TO.N,col 5*%
X316784998Y-54982900D03*
X186690000Y-54704000D03*
X119075200Y-118567200D03*
X153035000Y-40640000D03*
%TO.N,col 7*%
X187325000Y-47625000D03*
%TO.N,col 12*%
X254000000Y-60925000D03*
X269240000Y-36769000D03*
%TO.N,row 2*%
X86995000Y-79375000D03*
X106045000Y-79375000D03*
%TO.N,row 1*%
X355600000Y-60960000D03*
%TO.N,col 2*%
X64135000Y-71755000D03*
X175895000Y-53975000D03*
X67945000Y-78740000D03*
%TO.N,col 8*%
X193040000Y-37369000D03*
X179070000Y-72390000D03*
X174625000Y-64904000D03*
%TO.N,col 11*%
X232664000Y-60925000D03*
X231140000Y-72136000D03*
%TO.N,col 1*%
X337074028Y-55769028D03*
X81915000Y-56515000D03*
%TO.N,row 4*%
X230022400Y-114757200D03*
X172923200Y-114858800D03*
X249021600Y-114960400D03*
X312572400Y-118567200D03*
X192328800Y-114909600D03*
X272694400Y-114503200D03*
X134366000Y-114960400D03*
X154178000Y-114960400D03*
%TO.N,row 5*%
X266651270Y-133990626D03*
X244754400Y-133908800D03*
%TO.N,+5V*%
X349095000Y-88575000D03*
X348615000Y-114300000D03*
X350760000Y-71910000D03*
X352905000Y-61200000D03*
X276225000Y-33386000D03*
X257810000Y-33655000D03*
X348855000Y-107470000D03*
%TO.N,col 4*%
X329595000Y-56182900D03*
X329595000Y-56182900D03*
X99618800Y-119176800D03*
X174625000Y-55245000D03*
%TO.N,col 14*%
X303377600Y-84734400D03*
X299364400Y-60198000D03*
%TO.N,col 10*%
X213055200Y-61010800D03*
X211988400Y-115535000D03*
%TO.N,row 3*%
X311150000Y-95885000D03*
X160025165Y-95890165D03*
%TO.N,col 6*%
X154940000Y-45234816D03*
X151765000Y-54610000D03*
X175260000Y-54610000D03*
%TO.N,Net-(D8-A)*%
X163799435Y-42514435D03*
%TO.N,Net-(D24-A)*%
X193675000Y-66040000D03*
%TO.N,Net-(D25-A)*%
X212690000Y-65405000D03*
%TO.N,Net-(D26-A)*%
X230540000Y-65405000D03*
%TO.N,Net-(D111-DOUT)*%
X23495000Y-40640000D03*
X24610000Y-46045000D03*
%TO.N,Net-(D113-DOUT)*%
X24029297Y-61280768D03*
X24610000Y-82240000D03*
%TO.N,Net-(D115-DOUT)*%
X24130000Y-104140000D03*
X22860000Y-98425000D03*
%TO.N,Net-(D116-DOUT)*%
X23495000Y-119039998D03*
X25090000Y-138120000D03*
%TO.N,Net-(D118-DOUT)*%
X23100000Y-148110000D03*
X31750000Y-154940000D03*
%TO.N,Net-(D120-DOUT)*%
X52070000Y-156324000D03*
X77795000Y-154700000D03*
%TO.N,Net-(D122-DOUT)*%
X99060000Y-155786000D03*
X124785000Y-154700000D03*
%TO.N,Net-(D124-DOUT)*%
X170505000Y-154700000D03*
X145415000Y-156324000D03*
%TO.N,Net-(D126-DOUT)*%
X191770000Y-156324000D03*
X216380000Y-154700000D03*
%TO.N,Net-(D127-DOUT)*%
X215080001Y-156828999D03*
X239875000Y-154700000D03*
%TO.N,Net-(D129-DOUT)*%
X257175000Y-156324000D03*
X279245000Y-154700000D03*
%TO.N,Net-(D131-DOUT)*%
X322425000Y-161050000D03*
X301625000Y-162560000D03*
%TO.N,Net-(D133-DOUT)*%
X352905000Y-59450000D03*
X340360000Y-162674000D03*
%TO.N,Net-(D134-DIN)*%
X344170000Y-137795000D03*
X348855000Y-130020000D03*
%TO.N,Net-(D136-DIN)*%
X349095000Y-92075000D03*
X347980000Y-95885000D03*
%TO.N,Net-(D138-DIN)*%
X349405000Y-61200000D03*
X349136000Y-63610265D03*
%TO.N,col 15*%
X337870800Y-63957200D03*
X338455000Y-58534265D03*
X352397697Y-57334265D03*
%TD*%
D20*
%TO.N,GND*%
X354538495Y-58569265D02*
X350285735Y-58569265D01*
X348615000Y-52705000D02*
X349766000Y-51554000D01*
X333379000Y-49934000D02*
X333379000Y-51236000D01*
X359926000Y-53181760D02*
X354538495Y-58569265D01*
X323215000Y-34925000D02*
X319800000Y-31510000D01*
X24765000Y-61595000D02*
X24765000Y-76835000D01*
X350285735Y-58569265D02*
X349405000Y-59450000D01*
X319800000Y-31510000D02*
X308765000Y-31510000D01*
X359251760Y-51554000D02*
X359926000Y-52228240D01*
X346710000Y-137795000D02*
X346710000Y-137160000D01*
X361315000Y-52705000D02*
X355450735Y-58569265D01*
X349766000Y-51554000D02*
X359251760Y-51554000D01*
X323215000Y-48260000D02*
X326390000Y-45085000D01*
X359926000Y-52228240D02*
X359926000Y-53181760D01*
X334446000Y-51236000D02*
X335915000Y-52705000D01*
X347345000Y-110730000D02*
X347105000Y-110970000D01*
X347345000Y-93980000D02*
X347345000Y-110730000D01*
X333379000Y-51236000D02*
X334446000Y-51236000D01*
X355450735Y-58569265D02*
X350285735Y-58569265D01*
X323215000Y-52705000D02*
X323215000Y-48260000D01*
X327780000Y-44335000D02*
X333379000Y-49934000D01*
X26670000Y-98425000D02*
X24610000Y-98425000D01*
X344170000Y-140335000D02*
X346710000Y-137795000D01*
%TO.N,col 3*%
X78740000Y-119380000D02*
X80162400Y-119380000D01*
X80794816Y-62230000D02*
X97790000Y-45234816D01*
X88138000Y-81330800D02*
X88138000Y-69723000D01*
X80645000Y-62230000D02*
X80794816Y-62230000D01*
X97790000Y-45234816D02*
X97790000Y-39370000D01*
X80162400Y-119380000D02*
X80467200Y-119075200D01*
X78486000Y-100330000D02*
X88138000Y-90678000D01*
X88138000Y-69723000D02*
X80645000Y-62230000D01*
X78740000Y-62230000D02*
X80645000Y-62230000D01*
X88138000Y-90678000D02*
X88138000Y-81330800D01*
%TO.N,col 13*%
X334526000Y-34448240D02*
X333851760Y-33774000D01*
X321945000Y-42545000D02*
X324719000Y-39771000D01*
X268986000Y-109474000D02*
X268986000Y-100330000D01*
X294640000Y-135128000D02*
X278892000Y-119380000D01*
X306832184Y-49807000D02*
X310071000Y-49807000D01*
X278587200Y-90728800D02*
X278587200Y-81330800D01*
X330156760Y-39771000D02*
X334526000Y-35401760D01*
X331986000Y-33774000D02*
X330835000Y-34925000D01*
X317333000Y-42545000D02*
X321945000Y-42545000D01*
X294640000Y-144780000D02*
X294640000Y-135128000D01*
X268986000Y-100330000D02*
X278587200Y-90728800D01*
X278892000Y-119380000D02*
X268986000Y-109474000D01*
X278587200Y-81330800D02*
X279388200Y-80529800D01*
X296395184Y-39370000D02*
X306832184Y-49807000D01*
X333851760Y-33774000D02*
X331986000Y-33774000D01*
X288290000Y-39370000D02*
X296395184Y-39370000D01*
X310071000Y-49807000D02*
X317333000Y-42545000D01*
X279388200Y-80529800D02*
X280466800Y-80529800D01*
X324719000Y-39771000D02*
X330156760Y-39771000D01*
X334526000Y-35401760D02*
X334526000Y-34448240D01*
%TO.N,col 5*%
X118894816Y-62230000D02*
X135890000Y-45234816D01*
X126136400Y-90830400D02*
X126136400Y-81330800D01*
X135890000Y-45234816D02*
X135890000Y-39370000D01*
X151765000Y-39370000D02*
X153035000Y-40640000D01*
X118262400Y-119380000D02*
X119075200Y-118567200D01*
X187167900Y-55181900D02*
X316585998Y-55181900D01*
X116840000Y-119380000D02*
X118262400Y-119380000D01*
X118894816Y-62230000D02*
X126136400Y-69471584D01*
X135890000Y-39370000D02*
X151765000Y-39370000D01*
X316585998Y-55181900D02*
X316784998Y-54982900D01*
X116586000Y-100380800D02*
X126136400Y-90830400D01*
X186690000Y-54704000D02*
X187167900Y-55181900D01*
X116840000Y-62230000D02*
X118894816Y-62230000D01*
X126136400Y-69471584D02*
X126136400Y-81330800D01*
%TO.N,col 7*%
X66802000Y-138430000D02*
X78421000Y-126811000D01*
X193556000Y-53856000D02*
X319524000Y-53856000D01*
X187325000Y-47625000D02*
X193556000Y-53856000D01*
X319524000Y-53856000D02*
X320675000Y-52705000D01*
X164236400Y-90830400D02*
X164236400Y-81229200D01*
X169765000Y-37397400D02*
X172017400Y-37397400D01*
X154686000Y-100380800D02*
X164236400Y-90830400D01*
X154940000Y-100634800D02*
X154686000Y-100380800D01*
X146724184Y-126811000D02*
X154155184Y-119380000D01*
X154940000Y-73488434D02*
X154940000Y-62230000D01*
X164236400Y-81229200D02*
X162680766Y-81229200D01*
X172017400Y-37397400D02*
X173990000Y-39370000D01*
X154940000Y-52222400D02*
X169765000Y-37397400D01*
X78421000Y-126811000D02*
X146724184Y-126811000D01*
X154940000Y-62230000D02*
X154940000Y-52222400D01*
X154940000Y-119380000D02*
X154940000Y-100634800D01*
X154155184Y-119380000D02*
X154940000Y-119380000D01*
X162680766Y-81229200D02*
X154940000Y-73488434D01*
%TO.N,col 12*%
X253017050Y-62230000D02*
X258276000Y-67488950D01*
X250190000Y-119380000D02*
X262101000Y-131291000D01*
X253017050Y-62230000D02*
X254000000Y-61247050D01*
X249936000Y-100330000D02*
X249936000Y-115951000D01*
X259384800Y-68597750D02*
X259384800Y-81381600D01*
X250190000Y-62230000D02*
X253017050Y-62230000D01*
X249936000Y-115951000D02*
X250190000Y-116205000D01*
X258276000Y-67488950D02*
X258276000Y-81648870D01*
X253017050Y-62230000D02*
X259384800Y-68597750D01*
X262101000Y-133673816D02*
X266857184Y-138430000D01*
X250190000Y-116205000D02*
X250190000Y-119380000D01*
X266857184Y-138430000D02*
X269367000Y-138430000D01*
X269240000Y-39370000D02*
X269240000Y-36769000D01*
X249936000Y-89988870D02*
X249936000Y-100330000D01*
X262101000Y-131291000D02*
X262101000Y-133673816D01*
X258276000Y-81648870D02*
X249936000Y-89988870D01*
X254000000Y-61247050D02*
X254000000Y-60925000D01*
%TO.N,row 2*%
X269320200Y-79929800D02*
X283129800Y-79929800D01*
X335765735Y-57934265D02*
X314325000Y-79375000D01*
X95250000Y-79375000D02*
X106045000Y-79375000D01*
X57150000Y-79375000D02*
X75565000Y-79375000D01*
X358775000Y-52705000D02*
X353545735Y-57934265D01*
X31115000Y-79375000D02*
X57150000Y-79375000D01*
X314325000Y-79375000D02*
X314325000Y-82550000D01*
X266700000Y-82550000D02*
X269320200Y-79929800D01*
X301650286Y-82550000D02*
X301933686Y-82833400D01*
X353545735Y-57934265D02*
X335765735Y-57934265D01*
X75565000Y-79375000D02*
X86995000Y-79375000D01*
X285750000Y-82550000D02*
X301650286Y-82550000D01*
X301933686Y-82833400D02*
X314041600Y-82833400D01*
X314041600Y-82833400D02*
X314325000Y-82550000D01*
X29210000Y-81280000D02*
X31115000Y-79375000D01*
X283129800Y-79929800D02*
X285750000Y-82550000D01*
%TO.N,row 1*%
X312420000Y-60325000D02*
X315211735Y-57533265D01*
X239984500Y-58465500D02*
X238125000Y-60325000D01*
X362466000Y-54094000D02*
X355600000Y-60960000D01*
X344805000Y-60325000D02*
X345440000Y-60960000D01*
X219075000Y-60325000D02*
X200025000Y-60325000D01*
X340979000Y-47373892D02*
X340979000Y-46296108D01*
X315211735Y-57533265D02*
X340572495Y-57533265D01*
X276225000Y-60325000D02*
X257175000Y-60325000D01*
X362466000Y-51554000D02*
X362466000Y-54094000D01*
X340572495Y-57533265D02*
X344924000Y-53181760D01*
X340979000Y-46296108D02*
X341741108Y-45534000D01*
X276225000Y-60325000D02*
X278084500Y-58465500D01*
X219075000Y-60325000D02*
X276225000Y-60325000D01*
X278084500Y-58465500D02*
X310560500Y-58465500D01*
X189153686Y-60325000D02*
X200025000Y-60325000D01*
X177088686Y-72390000D02*
X189153686Y-60325000D01*
X312420000Y-60325000D02*
X310560500Y-58465500D01*
X161925000Y-72390000D02*
X177088686Y-72390000D01*
X310560500Y-58465500D02*
X239984500Y-58465500D01*
X344924000Y-51318892D02*
X340979000Y-47373892D01*
X341741108Y-45534000D02*
X356446000Y-45534000D01*
X344924000Y-53181760D02*
X344924000Y-51318892D01*
X356446000Y-45534000D02*
X362466000Y-51554000D01*
%TO.N,col 2*%
X321826000Y-45187000D02*
X321826000Y-53181760D01*
X337181000Y-53979000D02*
X337181000Y-48634000D01*
X329081000Y-40534000D02*
X326479000Y-40534000D01*
X337181000Y-48634000D02*
X329081000Y-40534000D01*
X320750760Y-54257000D02*
X189021000Y-54257000D01*
X50292000Y-100584000D02*
X50038000Y-100330000D01*
X188739000Y-53975000D02*
X175895000Y-53975000D01*
X50038000Y-100330000D02*
X50038000Y-99595984D01*
X64135000Y-71755000D02*
X64135000Y-74930000D01*
X68252384Y-81381600D02*
X69037200Y-81381600D01*
X176024000Y-54104000D02*
X175895000Y-53975000D01*
X50292000Y-119380000D02*
X50292000Y-100584000D01*
X64135000Y-74930000D02*
X67945000Y-78740000D01*
X338455000Y-52705000D02*
X337181000Y-53979000D01*
X189021000Y-54257000D02*
X188739000Y-53975000D01*
X326479000Y-40534000D02*
X321826000Y-45187000D01*
X321826000Y-53181760D02*
X320750760Y-54257000D01*
X50038000Y-99595984D02*
X68252384Y-81381600D01*
%TO.N,col 8*%
X173990000Y-125301530D02*
X173990000Y-119380000D01*
X173990000Y-52628686D02*
X187248686Y-39370000D01*
X173736000Y-105257600D02*
X173736000Y-100330000D01*
X90551000Y-138430000D02*
X110286800Y-138430000D01*
X174625000Y-64904000D02*
X174625000Y-62865000D01*
X173990000Y-105511600D02*
X173736000Y-105257600D01*
X110286800Y-138430000D02*
X111687800Y-137029000D01*
X173736000Y-100330000D02*
X183235600Y-90830400D01*
X183235600Y-81280000D02*
X183235600Y-76555600D01*
X183235600Y-76555600D02*
X179070000Y-72390000D01*
X173990000Y-119380000D02*
X173990000Y-105511600D01*
X183235600Y-90830400D02*
X183235600Y-81280000D01*
X111687800Y-137029000D02*
X162262530Y-137029000D01*
X187248686Y-39370000D02*
X193040000Y-39370000D01*
X162262530Y-137029000D02*
X173990000Y-125301530D01*
X193040000Y-39370000D02*
X193040000Y-37369000D01*
X174625000Y-62865000D02*
X173990000Y-62230000D01*
X173990000Y-62230000D02*
X173990000Y-52628686D01*
%TO.N,col 11*%
X325755000Y-34925000D02*
X322711000Y-37969000D01*
X231140000Y-100584000D02*
X230886000Y-100330000D01*
X240284000Y-81280000D02*
X231140000Y-72136000D01*
X250190000Y-138430000D02*
X231140000Y-119380000D01*
X258295184Y-39370000D02*
X265726184Y-46801000D01*
X232445000Y-60925000D02*
X232664000Y-60925000D01*
X230886000Y-100330000D02*
X240284000Y-90932000D01*
X274161050Y-46801000D02*
X282993050Y-37969000D01*
X250190000Y-39370000D02*
X258295184Y-39370000D01*
X265726184Y-46801000D02*
X274161050Y-46801000D01*
X322711000Y-37969000D02*
X282993050Y-37969000D01*
X240284000Y-90932000D02*
X240284000Y-81280000D01*
X231140000Y-119380000D02*
X231140000Y-100584000D01*
X231140000Y-62230000D02*
X232445000Y-60925000D01*
X231140000Y-72136000D02*
X231140000Y-62230000D01*
%TO.N,row 0*%
X357505000Y-43815000D02*
X344260000Y-43815000D01*
X161925000Y-35560000D02*
X200025000Y-35560000D01*
X344260000Y-43815000D02*
X342280000Y-41835000D01*
X200025000Y-35560000D02*
X313690000Y-35560000D01*
X161290000Y-36195000D02*
X161925000Y-35560000D01*
X28575000Y-36195000D02*
X161290000Y-36195000D01*
X366395000Y-52705000D02*
X357505000Y-43815000D01*
%TO.N,col 1*%
X28593840Y-34290000D02*
X27474000Y-35409840D01*
X27474000Y-36980160D02*
X30444154Y-39950314D01*
X39239000Y-39950314D02*
X40059686Y-40771000D01*
X59690000Y-39370000D02*
X76835000Y-56515000D01*
X338455000Y-55245000D02*
X340995000Y-52705000D01*
X337598056Y-55245000D02*
X338455000Y-55245000D01*
X30444154Y-39950314D02*
X39239000Y-39950314D01*
X42621314Y-39370000D02*
X59690000Y-39370000D01*
X27474000Y-35409840D02*
X27474000Y-36980160D01*
X41220314Y-40771000D02*
X42621314Y-39370000D01*
X337074028Y-55769028D02*
X337598056Y-55245000D01*
X40059686Y-40771000D02*
X41220314Y-40771000D01*
X76835000Y-56515000D02*
X81915000Y-56515000D01*
%TO.N,row 4*%
X219075000Y-114935000D02*
X229844600Y-114935000D01*
X43339314Y-119336000D02*
X33611000Y-119336000D01*
X44784314Y-120781000D02*
X43339314Y-119336000D01*
X229844600Y-114935000D02*
X230022400Y-114757200D01*
X181000400Y-114909600D02*
X192328800Y-114909600D01*
X66040000Y-114935000D02*
X60194000Y-120781000D01*
X85725000Y-114935000D02*
X66040000Y-114935000D01*
X248996200Y-114935000D02*
X249021600Y-114960400D01*
X33611000Y-119336000D02*
X28575000Y-114300000D01*
X161925000Y-114935000D02*
X172847000Y-114935000D01*
X172847000Y-114935000D02*
X172923200Y-114858800D01*
X60194000Y-120781000D02*
X44784314Y-120781000D01*
X180975000Y-114935000D02*
X181000400Y-114909600D01*
X142875000Y-114935000D02*
X154152600Y-114935000D01*
X303987200Y-118567200D02*
X312572400Y-118567200D01*
X300355000Y-114935000D02*
X303987200Y-118567200D01*
X257175000Y-114935000D02*
X272262600Y-114935000D01*
X104775000Y-114935000D02*
X123825000Y-114935000D01*
X123825000Y-114935000D02*
X134340600Y-114935000D01*
X154152600Y-114935000D02*
X154178000Y-114960400D01*
X200025000Y-114935000D02*
X219075000Y-114935000D01*
X85725000Y-114935000D02*
X104775000Y-114935000D01*
X238125000Y-114935000D02*
X248996200Y-114935000D01*
X272262600Y-114935000D02*
X272694400Y-114503200D01*
X134340600Y-114935000D02*
X134366000Y-114960400D01*
%TO.N,row 5*%
X276225000Y-133985000D02*
X266656896Y-133985000D01*
X219075000Y-133985000D02*
X238125000Y-133985000D01*
X238125000Y-133985000D02*
X238201200Y-133908800D01*
X266656896Y-133985000D02*
X266651270Y-133990626D01*
X238201200Y-133908800D02*
X244754400Y-133908800D01*
X301625000Y-140335000D02*
X295779000Y-146181000D01*
X289132314Y-146181000D02*
X276936314Y-133985000D01*
X276936314Y-133985000D02*
X276225000Y-133985000D01*
X295779000Y-146181000D02*
X289132314Y-146181000D01*
%TO.N,+5V*%
X349696000Y-106629000D02*
X349696000Y-89176000D01*
X348855000Y-107470000D02*
X349696000Y-106629000D01*
X276225000Y-33386000D02*
X275956000Y-33655000D01*
X275956000Y-33655000D02*
X257810000Y-33655000D01*
X350760000Y-86910000D02*
X350760000Y-71910000D01*
X349696000Y-89176000D02*
X349095000Y-88575000D01*
X350675000Y-63430000D02*
X352905000Y-61200000D01*
X350675000Y-71825000D02*
X350675000Y-63430000D01*
X348615000Y-114300000D02*
X348615000Y-107710000D01*
X350760000Y-71910000D02*
X350675000Y-71825000D01*
X348615000Y-107710000D02*
X348855000Y-107470000D01*
X349095000Y-88575000D02*
X350760000Y-86910000D01*
%TO.N,col 4*%
X99415600Y-119380000D02*
X99618800Y-119176800D01*
X107086400Y-81330800D02*
X107086400Y-96796816D01*
X175562900Y-56182900D02*
X329595000Y-56182900D01*
X99844816Y-62230000D02*
X116840000Y-45234816D01*
X97790000Y-62230000D02*
X99844816Y-62230000D01*
X107086400Y-96796816D02*
X103400816Y-100482400D01*
X97790000Y-119380000D02*
X99415600Y-119380000D01*
X116840000Y-45234816D02*
X116840000Y-39370000D01*
X103400816Y-100482400D02*
X97536000Y-100482400D01*
X175562900Y-56182900D02*
X174625000Y-55245000D01*
X99844816Y-62230000D02*
X107086400Y-69471584D01*
X107086400Y-69471584D02*
X107086400Y-81330800D01*
%TO.N,col 0*%
X163009314Y-54339814D02*
X163009314Y-49530000D01*
X174570314Y-40771000D02*
X175391000Y-39950314D01*
X183596043Y-56782900D02*
X174873943Y-65505000D01*
X183596043Y-56782900D02*
X339457100Y-56782900D01*
X175391000Y-39950314D02*
X175391000Y-38789686D01*
X173597714Y-36996400D02*
X155332286Y-36996400D01*
X339457100Y-56782900D02*
X343535000Y-52705000D01*
X42041000Y-37969000D02*
X40640000Y-39370000D01*
X154359686Y-37969000D02*
X42041000Y-37969000D01*
X174174500Y-65505000D02*
X163009314Y-54339814D01*
X174873943Y-65505000D02*
X174174500Y-65505000D01*
X155332286Y-36996400D02*
X154359686Y-37969000D01*
X163009314Y-49530000D02*
X171768314Y-40771000D01*
X175391000Y-38789686D02*
X173597714Y-36996400D01*
X171768314Y-40771000D02*
X174570314Y-40771000D01*
%TO.N,col 14*%
X307340000Y-39370000D02*
X328930000Y-39370000D01*
X290064000Y-64221186D02*
X290064000Y-65455316D01*
X303377600Y-94640400D02*
X303377600Y-84734400D01*
X297815000Y-62261500D02*
X299364400Y-60712100D01*
X297688000Y-100330000D02*
X303377600Y-94640400D01*
X297688000Y-100330000D02*
X313563000Y-116205000D01*
X297815000Y-62261500D02*
X292023686Y-62261500D01*
X313690000Y-125857000D02*
X313563000Y-125730000D01*
X313563000Y-116205000D02*
X313563000Y-125730000D01*
X313690000Y-144907000D02*
X313690000Y-125857000D01*
X328930000Y-39370000D02*
X333375000Y-34925000D01*
X299364400Y-60712100D02*
X299364400Y-60198000D01*
X292023686Y-62261500D02*
X290064000Y-64221186D01*
X290064000Y-65455316D02*
X302514000Y-77905316D01*
X302514000Y-77905316D02*
X302514000Y-81432400D01*
%TO.N,col 10*%
X212090000Y-61976000D02*
X213055200Y-61010800D01*
X318538000Y-37062000D02*
X277495000Y-37062000D01*
X212090000Y-130324816D02*
X220195184Y-138430000D01*
X212090000Y-72085200D02*
X212090000Y-62230000D01*
X221335600Y-81330800D02*
X221335600Y-90830400D01*
X233448000Y-37062000D02*
X264383586Y-37062000D01*
X320675000Y-34925000D02*
X318538000Y-37062000D01*
X221335600Y-81330800D02*
X212090000Y-72085200D01*
X273385000Y-41172000D02*
X277495000Y-37062000D01*
X212090000Y-115636600D02*
X211988400Y-115535000D01*
X220195184Y-138430000D02*
X231140000Y-138430000D01*
X231140000Y-39370000D02*
X233448000Y-37062000D01*
X212090000Y-62230000D02*
X212090000Y-61976000D01*
X268493586Y-41172000D02*
X273385000Y-41172000D01*
X212090000Y-119380000D02*
X212090000Y-130324816D01*
X264383586Y-37062000D02*
X268493586Y-41172000D01*
X212090000Y-119380000D02*
X212090000Y-115636600D01*
X221335600Y-90830400D02*
X211836000Y-100330000D01*
%TO.N,row 3*%
X311150000Y-95885000D02*
X313690000Y-95885000D01*
X160030330Y-95885000D02*
X160025165Y-95890165D01*
X161925000Y-95885000D02*
X160030330Y-95885000D01*
%TO.N,col 6*%
X135890000Y-71983600D02*
X135890000Y-62230000D01*
X135890000Y-119380000D02*
X135890000Y-100634800D01*
X135890000Y-62230000D02*
X137944816Y-62230000D01*
X137944816Y-62230000D02*
X154940000Y-45234816D01*
X63957200Y-117652800D02*
X134162800Y-117652800D01*
X176232900Y-55582900D02*
X175260000Y-54610000D01*
X151765000Y-54610000D02*
X151765000Y-52070000D01*
X155575000Y-48260000D02*
X155575000Y-45869816D01*
X176232900Y-55582900D02*
X322877100Y-55582900D01*
X135890000Y-100634800D02*
X135636000Y-100380800D01*
X134162800Y-117652800D02*
X135890000Y-119380000D01*
X154940000Y-45234816D02*
X154940000Y-39370000D01*
X151765000Y-52070000D02*
X155575000Y-48260000D01*
X43053000Y-138557000D02*
X63957200Y-117652800D01*
X322877100Y-55582900D02*
X325755000Y-52705000D01*
X155575000Y-45869816D02*
X154940000Y-45234816D01*
X145288000Y-81381600D02*
X135890000Y-71983600D01*
X135636000Y-100380800D02*
X145288000Y-90728800D01*
X145288000Y-90728800D02*
X145288000Y-81381600D01*
%TO.N,col 9*%
X202285600Y-81381600D02*
X193040000Y-72136000D01*
X193040000Y-100634800D02*
X193040000Y-119380000D01*
X318135000Y-34925000D02*
X316399000Y-36661000D01*
X264549686Y-36661000D02*
X268659686Y-40771000D01*
X192786000Y-90096384D02*
X201500784Y-81381600D01*
X268659686Y-40771000D02*
X269820314Y-40771000D01*
X192198470Y-119380000D02*
X193040000Y-119380000D01*
X212090000Y-39370000D02*
X214799000Y-36661000D01*
X193040000Y-72136000D02*
X193040000Y-62230000D01*
X162052000Y-138430000D02*
X173148470Y-138430000D01*
X173148470Y-138430000D02*
X192198470Y-119380000D01*
X214799000Y-36661000D02*
X264549686Y-36661000D01*
X201500784Y-81381600D02*
X202285600Y-81381600D01*
X192786000Y-100380800D02*
X193040000Y-100634800D01*
X316399000Y-36661000D02*
X273930314Y-36661000D01*
X269820314Y-40771000D02*
X273930314Y-36661000D01*
X192786000Y-100380800D02*
X192786000Y-90096384D01*
%TO.N,Net-(D2-A)*%
X49530000Y-41910000D02*
X53340000Y-41910000D01*
X47625000Y-43815000D02*
X49530000Y-41910000D01*
%TO.N,Net-(D3-A)*%
X68326000Y-41910000D02*
X72390000Y-41910000D01*
X66548000Y-43688000D02*
X68326000Y-41910000D01*
%TO.N,Net-(D4-A)*%
X87503000Y-41910000D02*
X91440000Y-41910000D01*
X85725000Y-43688000D02*
X87503000Y-41910000D01*
%TO.N,Net-(D5-A)*%
X105410000Y-43815000D02*
X107315000Y-41910000D01*
X107315000Y-41910000D02*
X110490000Y-41910000D01*
%TO.N,Net-(D6-A)*%
X125730000Y-41910000D02*
X129540000Y-41910000D01*
X123825000Y-43815000D02*
X125730000Y-41910000D01*
%TO.N,Net-(D7-A)*%
X144780000Y-41910000D02*
X142875000Y-43815000D01*
X148590000Y-41910000D02*
X144780000Y-41910000D01*
%TO.N,Net-(D8-A)*%
X161925000Y-43180000D02*
X163133870Y-43180000D01*
X163133870Y-43180000D02*
X163799435Y-42514435D01*
%TO.N,Net-(D9-A)*%
X186690000Y-41910000D02*
X198755000Y-41910000D01*
X200025000Y-43180000D02*
X198755000Y-41910000D01*
%TO.N,Net-(D10-A)*%
X217805000Y-41910000D02*
X219075000Y-43180000D01*
X205740000Y-41910000D02*
X217805000Y-41910000D01*
%TO.N,Net-(D11-A)*%
X236855000Y-41910000D02*
X224790000Y-41910000D01*
X238125000Y-43180000D02*
X236855000Y-41910000D01*
%TO.N,Net-(D12-A)*%
X255905000Y-41910000D02*
X257175000Y-43180000D01*
X243840000Y-41910000D02*
X255905000Y-41910000D01*
%TO.N,Net-(D13-A)*%
X274955000Y-41910000D02*
X262890000Y-41910000D01*
X276225000Y-43180000D02*
X274955000Y-41910000D01*
%TO.N,Net-(D14-A)*%
X295275000Y-43180000D02*
X294005000Y-41910000D01*
X294005000Y-41910000D02*
X281940000Y-41910000D01*
%TO.N,Net-(D15-A)*%
X312420000Y-41910000D02*
X313690000Y-43180000D01*
X300990000Y-41910000D02*
X312420000Y-41910000D01*
%TO.N,Net-(D16-A)*%
X28575000Y-69215000D02*
X33020000Y-64770000D01*
X33020000Y-64770000D02*
X34290000Y-64770000D01*
%TO.N,Net-(D17-A)*%
X53086000Y-64516000D02*
X53340000Y-64770000D01*
X47752000Y-64516000D02*
X53086000Y-64516000D01*
%TO.N,Net-(D18-A)*%
X72136000Y-65024000D02*
X72390000Y-64770000D01*
X66548000Y-65024000D02*
X72136000Y-65024000D01*
%TO.N,Net-(D19-A)*%
X85852000Y-65024000D02*
X91186000Y-65024000D01*
X91186000Y-65024000D02*
X91440000Y-64770000D01*
%TO.N,Net-(D20-A)*%
X104775000Y-64770000D02*
X110490000Y-64770000D01*
%TO.N,Net-(D21-A)*%
X123825000Y-64770000D02*
X129540000Y-64770000D01*
%TO.N,Net-(D22-A)*%
X143510000Y-64770000D02*
X148590000Y-64770000D01*
%TO.N,Net-(D23-A)*%
X161925000Y-64770000D02*
X167640000Y-64770000D01*
%TO.N,Net-(D24-A)*%
X200025000Y-67945000D02*
X198120000Y-66040000D01*
X198120000Y-66040000D02*
X193675000Y-66040000D01*
%TO.N,Net-(D25-A)*%
X219075000Y-67945000D02*
X216535000Y-65405000D01*
X216535000Y-65405000D02*
X212690000Y-65405000D01*
%TO.N,Net-(D26-A)*%
X229905000Y-64770000D02*
X230540000Y-65405000D01*
X224790000Y-64770000D02*
X229905000Y-64770000D01*
%TO.N,Net-(D27-A)*%
X257175000Y-67945000D02*
X254000000Y-64770000D01*
X254000000Y-64770000D02*
X243840000Y-64770000D01*
%TO.N,Net-(D28-A)*%
X276225000Y-67945000D02*
X273050000Y-64770000D01*
X273050000Y-64770000D02*
X262890000Y-64770000D01*
%TO.N,Net-(D29-A)*%
X312420000Y-67945000D02*
X309276500Y-64801500D01*
X309276500Y-64801500D02*
X291465000Y-64801500D01*
%TO.N,Net-(D30-A)*%
X345440000Y-68580000D02*
X341630000Y-64770000D01*
X341630000Y-64770000D02*
X331470000Y-64770000D01*
%TO.N,Net-(D31-A)*%
X60223400Y-83921600D02*
X62687200Y-83921600D01*
X57150000Y-86995000D02*
X60223400Y-83921600D01*
%TO.N,Net-(D32-A)*%
X78689200Y-83870800D02*
X81788000Y-83870800D01*
X75565000Y-86995000D02*
X78689200Y-83870800D01*
%TO.N,Net-(D33-A)*%
X98374200Y-83870800D02*
X100736400Y-83870800D01*
X95250000Y-86995000D02*
X98374200Y-83870800D01*
%TO.N,Net-(D34-A)*%
X113665000Y-86995000D02*
X116789200Y-83870800D01*
X116789200Y-83870800D02*
X119786400Y-83870800D01*
%TO.N,Net-(D35-A)*%
X136423400Y-83921600D02*
X138938000Y-83921600D01*
X133350000Y-86995000D02*
X136423400Y-83921600D01*
%TO.N,Net-(D36-A)*%
X155625800Y-83769200D02*
X157886400Y-83769200D01*
X152400000Y-86995000D02*
X155625800Y-83769200D01*
%TO.N,Net-(D37-A)*%
X173355000Y-83820000D02*
X176885600Y-83820000D01*
X170180000Y-86995000D02*
X173355000Y-83820000D01*
%TO.N,Net-(D38-A)*%
X190500000Y-87801566D02*
X194379966Y-83921600D01*
X190500000Y-90170000D02*
X190500000Y-87801566D01*
X194379966Y-83921600D02*
X195935600Y-83921600D01*
%TO.N,Net-(D39-A)*%
X214082830Y-83870800D02*
X214985600Y-83870800D01*
X208915000Y-89038630D02*
X214082830Y-83870800D01*
X208915000Y-90170000D02*
X208915000Y-89038630D01*
%TO.N,Net-(D40-A)*%
X229235000Y-88090530D02*
X233505530Y-83820000D01*
X233505530Y-83820000D02*
X233934000Y-83820000D01*
X229235000Y-90170000D02*
X229235000Y-88090530D01*
%TO.N,Net-(D41-A)*%
X252132030Y-83921600D02*
X253034800Y-83921600D01*
X247015000Y-90170000D02*
X247015000Y-89038630D01*
X247015000Y-89038630D02*
X252132030Y-83921600D01*
%TO.N,Net-(D42-A)*%
X266700000Y-88979530D02*
X271808730Y-83870800D01*
X266700000Y-90170000D02*
X266700000Y-88979530D01*
X271808730Y-83870800D02*
X272237200Y-83870800D01*
%TO.N,Net-(D43-A)*%
X285750000Y-90170000D02*
X291947600Y-83972400D01*
X291947600Y-83972400D02*
X296164000Y-83972400D01*
%TO.N,Net-(D44-A)*%
X314325000Y-90170000D02*
X320675000Y-83820000D01*
X320675000Y-83820000D02*
X331470000Y-83820000D01*
%TO.N,Net-(D45-A)*%
X28575000Y-103505000D02*
X43053000Y-103505000D01*
X43053000Y-103505000D02*
X43688000Y-102870000D01*
%TO.N,Net-(D46-A)*%
X66040000Y-103505000D02*
X71501000Y-103505000D01*
X71501000Y-103505000D02*
X72136000Y-102870000D01*
%TO.N,Net-(D47-A)*%
X85090000Y-103505000D02*
X90703400Y-103505000D01*
X90703400Y-103505000D02*
X91186000Y-103022400D01*
%TO.N,Net-(D48-A)*%
X104775000Y-103505000D02*
X109651800Y-103505000D01*
X109651800Y-103505000D02*
X110236000Y-102920800D01*
%TO.N,Net-(D49-A)*%
X123825000Y-103505000D02*
X128701800Y-103505000D01*
X128701800Y-103505000D02*
X129286000Y-102920800D01*
%TO.N,Net-(D50-A)*%
X147751800Y-103505000D02*
X148336000Y-102920800D01*
X142875000Y-103505000D02*
X147751800Y-103505000D01*
%TO.N,Net-(D51-A)*%
X166751000Y-103505000D02*
X167386000Y-102870000D01*
X161925000Y-103505000D02*
X166751000Y-103505000D01*
%TO.N,Net-(D52-A)*%
X180340000Y-103505000D02*
X185851800Y-103505000D01*
X185851800Y-103505000D02*
X186436000Y-102920800D01*
%TO.N,Net-(D53-A)*%
X200025000Y-103505000D02*
X204851000Y-103505000D01*
X204851000Y-103505000D02*
X205486000Y-102870000D01*
%TO.N,Net-(D54-A)*%
X223901000Y-103505000D02*
X224536000Y-102870000D01*
X218440000Y-103505000D02*
X223901000Y-103505000D01*
%TO.N,Net-(D55-A)*%
X242951000Y-103505000D02*
X243586000Y-102870000D01*
X237490000Y-103505000D02*
X242951000Y-103505000D01*
%TO.N,Net-(D56-A)*%
X262001000Y-103505000D02*
X262636000Y-102870000D01*
X256844800Y-103505000D02*
X262001000Y-103505000D01*
%TO.N,Net-(D57-A)*%
X290703000Y-103505000D02*
X291338000Y-102870000D01*
X275590000Y-103505000D02*
X290703000Y-103505000D01*
%TO.N,Net-(D58-A)*%
X330835000Y-103505000D02*
X331470000Y-102870000D01*
X313690000Y-103505000D02*
X330835000Y-103505000D01*
%TO.N,Net-(D59-A)*%
X28575000Y-121920000D02*
X43942000Y-121920000D01*
%TO.N,Net-(D60-A)*%
X66040000Y-122555000D02*
X71755000Y-122555000D01*
X71755000Y-122555000D02*
X72390000Y-121920000D01*
%TO.N,Net-(D61-A)*%
X90805000Y-122555000D02*
X91440000Y-121920000D01*
X85725000Y-122555000D02*
X90805000Y-122555000D01*
%TO.N,Net-(D62-A)*%
X109855000Y-122555000D02*
X110490000Y-121920000D01*
X104775000Y-122555000D02*
X109855000Y-122555000D01*
%TO.N,Net-(D63-A)*%
X128905000Y-122555000D02*
X129540000Y-121920000D01*
X123825000Y-122555000D02*
X128905000Y-122555000D01*
%TO.N,Net-(D64-A)*%
X142875000Y-122555000D02*
X147955000Y-122555000D01*
X147955000Y-122555000D02*
X148590000Y-121920000D01*
%TO.N,Net-(D65-A)*%
X167005000Y-122555000D02*
X167640000Y-121920000D01*
X161925000Y-122555000D02*
X167005000Y-122555000D01*
%TO.N,Net-(D66-A)*%
X186055000Y-122555000D02*
X186690000Y-121920000D01*
X180975000Y-122555000D02*
X186055000Y-122555000D01*
%TO.N,Net-(D67-A)*%
X205105000Y-122555000D02*
X205740000Y-121920000D01*
X200025000Y-122555000D02*
X205105000Y-122555000D01*
%TO.N,Net-(D68-A)*%
X224155000Y-122555000D02*
X224790000Y-121920000D01*
X219075000Y-122555000D02*
X224155000Y-122555000D01*
%TO.N,Net-(D69-A)*%
X243205000Y-122555000D02*
X243840000Y-121920000D01*
X238125000Y-122555000D02*
X243205000Y-122555000D01*
%TO.N,Net-(D70-A)*%
X257175000Y-122555000D02*
X271907000Y-122555000D01*
X271907000Y-122555000D02*
X272542000Y-121920000D01*
%TO.N,Net-(D71-A)*%
X301498000Y-122555000D02*
X300355000Y-122555000D01*
X307213000Y-128270000D02*
X301498000Y-122555000D01*
%TO.N,Net-(D72-A)*%
X325755000Y-122555000D02*
X330835000Y-122555000D01*
X330835000Y-122555000D02*
X331470000Y-121920000D01*
%TO.N,Net-(D73-A)*%
X52197000Y-141097000D02*
X36703000Y-141097000D01*
X52705000Y-141605000D02*
X52197000Y-141097000D01*
%TO.N,Net-(D74-A)*%
X74930000Y-140970000D02*
X75565000Y-141605000D01*
X60452000Y-140970000D02*
X74930000Y-140970000D01*
%TO.N,Net-(D75-A)*%
X99695000Y-141605000D02*
X99060000Y-140970000D01*
X99060000Y-140970000D02*
X84201000Y-140970000D01*
%TO.N,Net-(D76-A)*%
X218440000Y-140970000D02*
X219075000Y-141605000D01*
X155702000Y-140970000D02*
X218440000Y-140970000D01*
%TO.N,Net-(D77-A)*%
X224790000Y-140970000D02*
X237490000Y-140970000D01*
X237490000Y-140970000D02*
X238125000Y-141605000D01*
%TO.N,Net-(D78-A)*%
X243840000Y-140970000D02*
X256540000Y-140970000D01*
X256540000Y-140970000D02*
X257175000Y-141605000D01*
%TO.N,Net-(D79-A)*%
X263017000Y-140970000D02*
X275590000Y-140970000D01*
X275590000Y-140970000D02*
X276225000Y-141605000D01*
%TO.N,Net-(D80-A)*%
X300990000Y-147320000D02*
X301625000Y-147955000D01*
X288290000Y-147320000D02*
X300990000Y-147320000D01*
%TO.N,Net-(D81-A)*%
X320167000Y-147447000D02*
X307340000Y-147447000D01*
X320675000Y-147955000D02*
X320167000Y-147447000D01*
%TO.N,Net-(D82-A)*%
X339090000Y-147320000D02*
X326390000Y-147320000D01*
X339725000Y-147955000D02*
X339090000Y-147320000D01*
%TO.N,Net-(D111-DOUT)*%
X23495000Y-40640000D02*
X23495000Y-44930000D01*
X23495000Y-44930000D02*
X24610000Y-46045000D01*
%TO.N,Net-(D113-DOUT)*%
X24029297Y-61280768D02*
X24029297Y-81659297D01*
X24029297Y-81659297D02*
X24610000Y-82240000D01*
%TO.N,Net-(D115-DOUT)*%
X22860000Y-102870000D02*
X22860000Y-98425000D01*
X24130000Y-104140000D02*
X22860000Y-102870000D01*
%TO.N,Net-(D116-DOUT)*%
X23495000Y-136525000D02*
X25090000Y-138120000D01*
X23495000Y-119039998D02*
X23495000Y-136525000D01*
%TO.N,Net-(D118-DOUT)*%
X24920000Y-148110000D02*
X23100000Y-148110000D01*
X31750000Y-154940000D02*
X24920000Y-148110000D01*
%TO.N,Net-(D120-DOUT)*%
X52070000Y-156324000D02*
X76171000Y-156324000D01*
X76171000Y-156324000D02*
X77795000Y-154700000D01*
%TO.N,Net-(D122-DOUT)*%
X123699000Y-155786000D02*
X124785000Y-154700000D01*
X99060000Y-155786000D02*
X123699000Y-155786000D01*
%TO.N,Net-(D124-DOUT)*%
X168881000Y-156324000D02*
X170505000Y-154700000D01*
X145415000Y-156324000D02*
X168881000Y-156324000D01*
%TO.N,Net-(D126-DOUT)*%
X191770000Y-156324000D02*
X214756000Y-156324000D01*
X214756000Y-156324000D02*
X216380000Y-154700000D01*
%TO.N,Net-(D127-DOUT)*%
X215080001Y-156828999D02*
X237746001Y-156828999D01*
X237746001Y-156828999D02*
X239875000Y-154700000D01*
%TO.N,Net-(D129-DOUT)*%
X257175000Y-156324000D02*
X277621000Y-156324000D01*
X277621000Y-156324000D02*
X279245000Y-154700000D01*
%TO.N,Net-(D131-DOUT)*%
X320915000Y-162560000D02*
X322425000Y-161050000D01*
X301625000Y-162560000D02*
X320915000Y-162560000D01*
%TO.N,Net-(D133-DOUT)*%
X343535000Y-159499000D02*
X343535000Y-72042050D01*
X343535000Y-72042050D02*
X350006000Y-65571050D01*
X350006000Y-65571050D02*
X350006000Y-62349000D01*
X350006000Y-62349000D02*
X352905000Y-59450000D01*
X340360000Y-162674000D02*
X343535000Y-159499000D01*
%TO.N,Net-(D134-DIN)*%
X344170000Y-137795000D02*
X348855000Y-133110000D01*
X348855000Y-133110000D02*
X348855000Y-130020000D01*
%TO.N,Net-(D136-DIN)*%
X347980000Y-95885000D02*
X347980000Y-93190000D01*
X347980000Y-93190000D02*
X349095000Y-92075000D01*
%TO.N,Net-(D138-DIN)*%
X349405000Y-63341265D02*
X349405000Y-61200000D01*
X349136000Y-63610265D02*
X349405000Y-63341265D01*
%TO.N,col 15*%
X332740000Y-144780000D02*
X337820000Y-139700000D01*
X337820000Y-62230000D02*
X337820000Y-59169265D01*
X342280000Y-46835000D02*
X346075000Y-50630000D01*
X346075000Y-50630000D02*
X346075000Y-52705000D01*
X337820000Y-139700000D02*
X337820000Y-119380000D01*
X346075000Y-52705000D02*
X350704265Y-57334265D01*
X337820000Y-62230000D02*
X337820000Y-63906400D01*
X337820000Y-63906400D02*
X337870800Y-63957200D01*
X337820000Y-119380000D02*
X337820000Y-100330000D01*
X337820000Y-100330000D02*
X337820000Y-81280000D01*
X337820000Y-59169265D02*
X338455000Y-58534265D01*
X350704265Y-57334265D02*
X352397697Y-57334265D01*
%TO.N,Net-(D83-A)*%
X34163000Y-83947000D02*
X38989000Y-83947000D01*
X29210000Y-88900000D02*
X34163000Y-83947000D01*
%TD*%
M02*
