%TF.GenerationSoftware,KiCad,Pcbnew,9.0.2*%
%TF.CreationDate,2025-07-29T21:02:51-05:00*%
%TF.ProjectId,realkeyboard,7265616c-6b65-4796-926f-6172642e6b69,rev?*%
%TF.SameCoordinates,Original*%
%TF.FileFunction,Paste,Bot*%
%TF.FilePolarity,Positive*%
%FSLAX46Y46*%
G04 Gerber Fmt 4.6, Leading zero omitted, Abs format (unit mm)*
G04 Created by KiCad (PCBNEW 9.0.2) date 2025-07-29 21:02:51*
%MOMM*%
%LPD*%
G01*
G04 APERTURE LIST*
%ADD10R,0.850000X1.600000*%
%ADD11R,1.600000X0.850000*%
G04 APERTURE END LIST*
D10*
%TO.C,D137*%
X349095000Y-92075000D03*
X347345000Y-92075000D03*
X347345000Y-88575000D03*
X349095000Y-88575000D03*
%TD*%
D11*
%TO.C,D110*%
X44605000Y-33260000D03*
X44605000Y-31510000D03*
X48105000Y-31510000D03*
X48105000Y-33260000D03*
%TD*%
%TO.C,D132*%
X318925000Y-162800000D03*
X318925000Y-161050000D03*
X322425000Y-161050000D03*
X322425000Y-162800000D03*
%TD*%
%TO.C,D128*%
X236375000Y-156450000D03*
X236375000Y-154700000D03*
X239875000Y-154700000D03*
X239875000Y-156450000D03*
%TD*%
%TO.C,D131*%
X299875000Y-162800000D03*
X299875000Y-161050000D03*
X303375000Y-161050000D03*
X303375000Y-162800000D03*
%TD*%
%TO.C,D123*%
X121285000Y-156450000D03*
X121285000Y-154700000D03*
X124785000Y-154700000D03*
X124785000Y-156450000D03*
%TD*%
%TO.C,D105*%
X139855000Y-33260000D03*
X139855000Y-31510000D03*
X143355000Y-31510000D03*
X143355000Y-33260000D03*
%TD*%
%TO.C,D122*%
X97790000Y-156210000D03*
X97790000Y-154460000D03*
X101290000Y-154460000D03*
X101290000Y-156210000D03*
%TD*%
%TO.C,D102*%
X197005000Y-33260000D03*
X197005000Y-31510000D03*
X200505000Y-31510000D03*
X200505000Y-33260000D03*
%TD*%
D10*
%TO.C,D135*%
X348855000Y-130020000D03*
X347105000Y-130020000D03*
X347105000Y-126520000D03*
X348855000Y-126520000D03*
%TD*%
%TO.C,D115*%
X22860000Y-98425000D03*
X24610000Y-98425000D03*
X24610000Y-101925000D03*
X22860000Y-101925000D03*
%TD*%
%TO.C,D113*%
X23340000Y-59690000D03*
X25090000Y-59690000D03*
X25090000Y-63190000D03*
X23340000Y-63190000D03*
%TD*%
D11*
%TO.C,D126*%
X190020000Y-156450000D03*
X190020000Y-154700000D03*
X193520000Y-154700000D03*
X193520000Y-156450000D03*
%TD*%
%TO.C,D108*%
X82705000Y-33260000D03*
X82705000Y-31510000D03*
X86205000Y-31510000D03*
X86205000Y-33260000D03*
%TD*%
%TO.C,D109*%
X63655000Y-33260000D03*
X63655000Y-31510000D03*
X67155000Y-31510000D03*
X67155000Y-33260000D03*
%TD*%
%TO.C,D130*%
X275745000Y-156450000D03*
X275745000Y-154700000D03*
X279245000Y-154700000D03*
X279245000Y-156450000D03*
%TD*%
%TO.C,D99*%
X254155000Y-33260000D03*
X254155000Y-31510000D03*
X257655000Y-31510000D03*
X257655000Y-33260000D03*
%TD*%
%TO.C,D111*%
X23805000Y-33500000D03*
X23805000Y-31750000D03*
X27305000Y-31750000D03*
X27305000Y-33500000D03*
%TD*%
%TO.C,D119*%
X29845000Y-156450000D03*
X29845000Y-154700000D03*
X33345000Y-154700000D03*
X33345000Y-156450000D03*
%TD*%
D10*
%TO.C,D136*%
X348855000Y-110970000D03*
X347105000Y-110970000D03*
X347105000Y-107470000D03*
X348855000Y-107470000D03*
%TD*%
%TO.C,D114*%
X22860000Y-78740000D03*
X24610000Y-78740000D03*
X24610000Y-82240000D03*
X22860000Y-82240000D03*
%TD*%
D11*
%TO.C,D129*%
X255425000Y-156450000D03*
X255425000Y-154700000D03*
X258925000Y-154700000D03*
X258925000Y-156450000D03*
%TD*%
%TO.C,D139*%
X349405000Y-61200000D03*
X349405000Y-59450000D03*
X352905000Y-59450000D03*
X352905000Y-61200000D03*
%TD*%
%TO.C,D98*%
X273205000Y-33260000D03*
X273205000Y-31510000D03*
X276705000Y-31510000D03*
X276705000Y-33260000D03*
%TD*%
%TO.C,D101*%
X216055000Y-33260000D03*
X216055000Y-31510000D03*
X219555000Y-31510000D03*
X219555000Y-33260000D03*
%TD*%
D10*
%TO.C,D118*%
X23100000Y-148110000D03*
X24850000Y-148110000D03*
X24850000Y-151610000D03*
X23100000Y-151610000D03*
%TD*%
D11*
%TO.C,D106*%
X120805000Y-33260000D03*
X120805000Y-31510000D03*
X124305000Y-31510000D03*
X124305000Y-33260000D03*
%TD*%
D10*
%TO.C,D138*%
X350760000Y-75410000D03*
X349010000Y-75410000D03*
X349010000Y-71910000D03*
X350760000Y-71910000D03*
%TD*%
D11*
%TO.C,D124*%
X143510000Y-156450000D03*
X143510000Y-154700000D03*
X147010000Y-154700000D03*
X147010000Y-156450000D03*
%TD*%
%TO.C,D97*%
X292255000Y-33260000D03*
X292255000Y-31510000D03*
X295755000Y-31510000D03*
X295755000Y-33260000D03*
%TD*%
%TO.C,D107*%
X101755000Y-33260000D03*
X101755000Y-31510000D03*
X105255000Y-31510000D03*
X105255000Y-33260000D03*
%TD*%
%TO.C,D100*%
X234470000Y-33260000D03*
X234470000Y-31510000D03*
X237970000Y-31510000D03*
X237970000Y-33260000D03*
%TD*%
D10*
%TO.C,D112*%
X22860000Y-42545000D03*
X24610000Y-42545000D03*
X24610000Y-46045000D03*
X22860000Y-46045000D03*
%TD*%
D11*
%TO.C,D104*%
X158905000Y-33260000D03*
X158905000Y-31510000D03*
X162405000Y-31510000D03*
X162405000Y-33260000D03*
%TD*%
%TO.C,D133*%
X338610000Y-162800000D03*
X338610000Y-161050000D03*
X342110000Y-161050000D03*
X342110000Y-162800000D03*
%TD*%
%TO.C,D127*%
X212880000Y-156450000D03*
X212880000Y-154700000D03*
X216380000Y-154700000D03*
X216380000Y-156450000D03*
%TD*%
%TO.C,D96*%
X308765000Y-33260000D03*
X308765000Y-31510000D03*
X312265000Y-31510000D03*
X312265000Y-33260000D03*
%TD*%
%TO.C,D121*%
X74295000Y-156450000D03*
X74295000Y-154700000D03*
X77795000Y-154700000D03*
X77795000Y-156450000D03*
%TD*%
%TO.C,D120*%
X50475000Y-156450000D03*
X50475000Y-154700000D03*
X53975000Y-154700000D03*
X53975000Y-156450000D03*
%TD*%
%TO.C,D125*%
X167005000Y-156450000D03*
X167005000Y-154700000D03*
X170505000Y-154700000D03*
X170505000Y-156450000D03*
%TD*%
D10*
%TO.C,D134*%
X345045000Y-149070000D03*
X343295000Y-149070000D03*
X343295000Y-145570000D03*
X345045000Y-145570000D03*
%TD*%
%TO.C,D116*%
X23100000Y-116840000D03*
X24850000Y-116840000D03*
X24850000Y-120340000D03*
X23100000Y-120340000D03*
%TD*%
D11*
%TO.C,D103*%
X177955000Y-33260000D03*
X177955000Y-31510000D03*
X181455000Y-31510000D03*
X181455000Y-33260000D03*
%TD*%
D10*
%TO.C,D117*%
X23340000Y-134620000D03*
X25090000Y-134620000D03*
X25090000Y-138120000D03*
X23340000Y-138120000D03*
%TD*%
M02*
