M48
; DRILL file {KiCad 9.0.2} date 2025-07-29T21:03:28-0500
; FORMAT={-:-/ absolute / metric / decimal}
; #@! TF.CreationDate,2025-07-29T21:03:28-05:00
; #@! TF.GenerationSoftware,Kicad,Pcbnew,9.0.2
; #@! TF.FileFunction,Plated,1,2,PTH
FMAT,2
METRIC
; #@! TA.AperFunction,Plated,PTH,ViaDrill
T1C0.300
; #@! TA.AperFunction,Plated,PTH,ComponentDrill
T2C0.800
; #@! TA.AperFunction,Plated,PTH,ComponentDrill
T3C1.000
; #@! TA.AperFunction,Plated,PTH,ComponentDrill
T4C1.020
; #@! TA.AperFunction,Plated,PTH,ComponentDrill
T5C1.500
%
G90
G05
T1
X22.86Y-98.425
X23.1Y-148.11
X23.495Y-40.64
X23.495Y-119.04
X24.029Y-61.281
X24.13Y-104.14
X24.61Y-46.045
X24.61Y-82.24
X24.61Y-98.425
X24.765Y-61.595
X24.765Y-76.835
X25.09Y-138.12
X26.67Y-98.425
X31.75Y-154.94
X52.07Y-156.324
X64.135Y-71.755
X67.945Y-78.74
X77.795Y-154.7
X80.467Y-119.075
X81.915Y-56.515
X86.995Y-79.375
X99.06Y-155.786
X99.619Y-119.177
X106.045Y-79.375
X119.075Y-118.567
X124.785Y-154.7
X134.366Y-114.96
X145.415Y-156.324
X151.765Y-54.61
X153.035Y-40.64
X154.178Y-114.96
X154.94Y-45.235
X160.025Y-95.89
X163.799Y-42.514
X170.505Y-154.7
X172.923Y-114.859
X174.625Y-55.245
X174.625Y-64.904
X175.26Y-54.61
X175.895Y-53.975
X179.07Y-72.39
X186.69Y-54.704
X187.325Y-47.625
X191.77Y-156.324
X192.329Y-114.91
X193.04Y-37.369
X193.675Y-66.04
X211.988Y-115.535
X212.69Y-65.405
X213.055Y-61.011
X215.08Y-156.829
X216.38Y-154.7
X230.022Y-114.757
X230.54Y-65.405
X231.14Y-72.136
X232.664Y-60.925
X239.875Y-154.7
X244.754Y-133.909
X249.022Y-114.96
X254.0Y-60.925
X257.175Y-156.324
X257.81Y-33.655
X266.651Y-133.991
X269.24Y-36.769
X272.694Y-114.503
X276.225Y-33.386
X279.245Y-154.7
X280.467Y-80.53
X299.364Y-60.198
X301.625Y-162.56
X303.378Y-84.734
X308.765Y-31.51
X311.15Y-95.885
X312.572Y-118.567
X316.785Y-54.983
X322.425Y-161.05
X326.39Y-45.085
X329.595Y-56.183
X329.595Y-56.183
X337.074Y-55.769
X337.871Y-63.957
X338.455Y-58.534
X340.36Y-162.674
X344.17Y-137.795
X344.17Y-140.335
X346.71Y-137.16
X347.105Y-110.97
X347.345Y-93.98
X347.98Y-95.885
X348.615Y-114.3
X348.855Y-107.47
X348.855Y-130.02
X349.095Y-88.575
X349.095Y-92.075
X349.136Y-63.61
X349.405Y-59.45
X349.405Y-61.2
X350.76Y-71.91
X352.398Y-57.334
X352.905Y-59.45
X352.905Y-61.2
X355.6Y-60.96
T2
X28.575Y-36.195
X28.575Y-43.815
X28.575Y-69.215
X28.575Y-76.835
X28.575Y-95.885
X28.575Y-103.505
X28.575Y-114.3
X28.575Y-121.92
X29.21Y-81.28
X29.21Y-88.9
X47.625Y-36.195
X47.625Y-43.815
X47.752Y-64.516
X47.752Y-72.136
X52.705Y-133.985
X52.705Y-141.605
X57.15Y-79.375
X57.15Y-86.995
X66.04Y-95.885
X66.04Y-103.505
X66.04Y-114.935
X66.04Y-122.555
X66.548Y-36.068
X66.548Y-43.688
X66.548Y-65.024
X66.548Y-72.644
X75.565Y-79.375
X75.565Y-86.995
X75.565Y-133.985
X75.565Y-141.605
X85.09Y-95.885
X85.09Y-103.505
X85.725Y-36.068
X85.725Y-43.688
X85.725Y-114.935
X85.725Y-122.555
X85.852Y-65.024
X85.852Y-72.644
X95.25Y-79.375
X95.25Y-86.995
X99.695Y-133.985
X99.695Y-141.605
X104.775Y-64.77
X104.775Y-72.39
X104.775Y-95.885
X104.775Y-103.505
X104.775Y-114.935
X104.775Y-122.555
X105.41Y-36.195
X105.41Y-43.815
X113.665Y-79.375
X113.665Y-86.995
X123.825Y-36.195
X123.825Y-43.815
X123.825Y-64.77
X123.825Y-72.39
X123.825Y-95.885
X123.825Y-103.505
X123.825Y-114.935
X123.825Y-122.555
X133.35Y-79.375
X133.35Y-86.995
X142.875Y-36.195
X142.875Y-43.815
X142.875Y-95.885
X142.875Y-103.505
X142.875Y-114.935
X142.875Y-122.555
X143.51Y-64.77
X143.51Y-72.39
X152.4Y-79.375
X152.4Y-86.995
X161.925Y-35.56
X161.925Y-43.18
X161.925Y-64.77
X161.925Y-72.39
X161.925Y-95.885
X161.925Y-103.505
X161.925Y-114.935
X161.925Y-122.555
X170.18Y-79.375
X170.18Y-86.995
X180.34Y-95.885
X180.34Y-103.505
X180.975Y-114.935
X180.975Y-122.555
X190.5Y-82.55
X190.5Y-90.17
X200.025Y-35.56
X200.025Y-43.18
X200.025Y-60.325
X200.025Y-67.945
X200.025Y-95.885
X200.025Y-103.505
X200.025Y-114.935
X200.025Y-122.555
X208.915Y-82.55
X208.915Y-90.17
X218.44Y-95.885
X218.44Y-103.505
X219.075Y-35.56
X219.075Y-43.18
X219.075Y-60.325
X219.075Y-67.945
X219.075Y-114.935
X219.075Y-122.555
X219.075Y-133.985
X219.075Y-141.605
X229.235Y-82.55
X229.235Y-90.17
X237.49Y-95.885
X237.49Y-103.505
X238.125Y-35.56
X238.125Y-43.18
X238.125Y-60.325
X238.125Y-67.945
X238.125Y-114.935
X238.125Y-122.555
X238.125Y-133.985
X238.125Y-141.605
X247.015Y-82.55
X247.015Y-90.17
X256.845Y-95.885
X256.845Y-103.505
X257.175Y-35.56
X257.175Y-43.18
X257.175Y-60.325
X257.175Y-67.945
X257.175Y-114.935
X257.175Y-122.555
X257.175Y-133.985
X257.175Y-141.605
X266.7Y-82.55
X266.7Y-90.17
X275.59Y-95.885
X275.59Y-103.505
X276.225Y-35.56
X276.225Y-43.18
X276.225Y-60.325
X276.225Y-67.945
X276.225Y-133.985
X276.225Y-141.605
X285.75Y-82.55
X285.75Y-90.17
X295.275Y-35.56
X295.275Y-43.18
X300.355Y-114.935
X300.355Y-122.555
X301.625Y-140.335
X301.625Y-147.955
X312.42Y-60.325
X312.42Y-67.945
X313.69Y-35.56
X313.69Y-43.18
X313.69Y-95.885
X313.69Y-103.505
X314.325Y-82.55
X314.325Y-90.17
X320.675Y-140.335
X320.675Y-147.955
X325.755Y-114.935
X325.755Y-122.555
X339.725Y-140.335
X339.725Y-147.955
X345.44Y-60.96
X345.44Y-68.58
T3
X327.78Y-41.835
X327.78Y-44.335
X327.78Y-46.835
X342.28Y-41.835
X342.28Y-46.835
T4
X318.135Y-34.925
X318.135Y-52.705
X318.365Y-41.275
X318.365Y-43.815
X318.365Y-46.355
X320.675Y-34.925
X320.675Y-52.705
X323.215Y-34.925
X323.215Y-52.705
X325.755Y-34.925
X325.755Y-52.705
X328.295Y-34.925
X328.295Y-52.705
X330.835Y-34.925
X330.835Y-52.705
X333.375Y-34.925
X333.375Y-52.705
X335.915Y-34.925
X335.915Y-52.705
X338.455Y-34.925
X338.455Y-52.705
X340.995Y-34.925
X340.995Y-52.705
X343.535Y-34.925
X343.535Y-52.705
X346.075Y-34.925
X346.075Y-52.705
X348.615Y-34.925
X348.615Y-52.705
X351.155Y-34.925
X351.155Y-52.705
X353.695Y-34.925
X353.695Y-52.705
X356.235Y-34.925
X356.235Y-52.705
X358.775Y-34.925
X358.775Y-52.705
X361.315Y-34.925
X361.315Y-52.705
X363.855Y-34.925
X363.855Y-52.705
X366.395Y-34.925
X366.395Y-52.705
T5
X34.29Y-41.91
X34.29Y-64.77
X36.703Y-141.097
X38.989Y-83.947
X40.64Y-39.37
X40.64Y-62.23
X43.053Y-138.557
X43.688Y-102.87
X43.942Y-121.92
X45.339Y-81.407
X50.038Y-100.33
X50.292Y-119.38
X53.34Y-41.91
X53.34Y-64.77
X59.69Y-39.37
X59.69Y-62.23
X60.452Y-140.97
X62.687Y-83.922
X66.802Y-138.43
X69.037Y-81.382
X72.136Y-102.87
X72.39Y-41.91
X72.39Y-64.77
X72.39Y-121.92
X78.486Y-100.33
X78.74Y-39.37
X78.74Y-62.23
X78.74Y-119.38
X81.788Y-83.871
X84.201Y-140.97
X88.138Y-81.331
X90.551Y-138.43
X91.186Y-103.022
X91.44Y-41.91
X91.44Y-64.77
X91.44Y-121.92
X97.536Y-100.482
X97.79Y-39.37
X97.79Y-62.23
X97.79Y-119.38
X100.736Y-83.871
X107.086Y-81.331
X110.236Y-102.921
X110.49Y-41.91
X110.49Y-64.77
X110.49Y-121.92
X116.586Y-100.381
X116.84Y-39.37
X116.84Y-62.23
X116.84Y-119.38
X119.786Y-83.871
X126.136Y-81.331
X129.286Y-102.921
X129.54Y-41.91
X129.54Y-64.77
X129.54Y-121.92
X135.636Y-100.381
X135.89Y-39.37
X135.89Y-62.23
X135.89Y-119.38
X138.938Y-83.922
X145.288Y-81.382
X148.336Y-102.921
X148.59Y-41.91
X148.59Y-64.77
X148.59Y-121.92
X154.686Y-100.381
X154.94Y-39.37
X154.94Y-62.23
X154.94Y-119.38
X155.702Y-140.97
X157.886Y-83.769
X162.052Y-138.43
X164.236Y-81.229
X167.386Y-102.87
X167.64Y-41.91
X167.64Y-64.77
X167.64Y-121.92
X173.736Y-100.33
X173.99Y-39.37
X173.99Y-62.23
X173.99Y-119.38
X176.886Y-83.82
X183.236Y-81.28
X186.436Y-102.921
X186.69Y-41.91
X186.69Y-64.77
X186.69Y-121.92
X192.786Y-100.381
X193.04Y-39.37
X193.04Y-62.23
X193.04Y-119.38
X195.936Y-83.922
X202.286Y-81.382
X205.486Y-102.87
X205.74Y-41.91
X205.74Y-64.77
X205.74Y-121.92
X211.836Y-100.33
X212.09Y-39.37
X212.09Y-62.23
X212.09Y-119.38
X214.986Y-83.871
X221.336Y-81.331
X224.536Y-102.87
X224.79Y-41.91
X224.79Y-64.77
X224.79Y-121.92
X224.79Y-140.97
X230.886Y-100.33
X231.14Y-39.37
X231.14Y-62.23
X231.14Y-119.38
X231.14Y-138.43
X233.934Y-83.82
X240.284Y-81.28
X243.586Y-102.87
X243.84Y-41.91
X243.84Y-64.77
X243.84Y-121.92
X243.84Y-140.97
X249.936Y-100.33
X250.19Y-39.37
X250.19Y-62.23
X250.19Y-119.38
X250.19Y-138.43
X253.035Y-83.922
X259.385Y-81.382
X262.636Y-102.87
X262.89Y-41.91
X262.89Y-64.77
X263.017Y-140.97
X268.986Y-100.33
X269.24Y-39.37
X269.24Y-62.23
X269.367Y-138.43
X272.237Y-83.871
X272.542Y-121.92
X278.587Y-81.331
X278.892Y-119.38
X281.94Y-41.91
X288.29Y-39.37
X288.29Y-147.32
X291.338Y-102.87
X291.465Y-64.801
X294.64Y-144.78
X296.164Y-83.972
X297.688Y-100.33
X297.815Y-62.261
X300.99Y-41.91
X302.514Y-81.432
X307.213Y-128.27
X307.34Y-39.37
X307.34Y-147.447
X313.563Y-125.73
X313.69Y-144.907
X326.39Y-147.32
X331.47Y-64.77
X331.47Y-83.82
X331.47Y-102.87
X331.47Y-121.92
X332.74Y-144.78
X337.82Y-62.23
X337.82Y-81.28
X337.82Y-100.33
X337.82Y-119.38
T5
G00X334.63Y-38.735
M15
G01X335.93Y-38.735
M16
G05
G00X334.63Y-49.935
M15
G01X335.93Y-49.935
M16
G05
M30
